<mxfile host="Electron" modified="2024-02-23T16:15:40.487Z" agent="Mozilla/5.0 (Windows NT 10.0; Win64; x64) AppleWebKit/537.36 (KHTML, like Gecko) draw.io/23.1.5 Chrome/120.0.6099.109 Electron/28.1.0 Safari/537.36" etag="XX4aK1woQDP2Kv-S5mNq" version="23.1.5" type="device">
  <diagram name="Page-1" id="6egT37-l8SicZci5ZWih">
    <mxGraphModel dx="2868" dy="-1819" grid="0" gridSize="10" guides="1" tooltips="1" connect="1" arrows="1" fold="1" page="1" pageScale="1" pageWidth="827" pageHeight="1169" math="0" shadow="0">
      <root>
        <mxCell id="0" />
        <mxCell id="1" parent="0" />
        <mxCell id="luAJzqGbtWHjG9p20asQ-26" style="edgeStyle=orthogonalEdgeStyle;rounded=0;orthogonalLoop=1;jettySize=auto;html=1;" edge="1" parent="1" source="luAJzqGbtWHjG9p20asQ-24" target="luAJzqGbtWHjG9p20asQ-27">
          <mxGeometry relative="1" as="geometry">
            <mxPoint x="382.0000000000002" y="3724.000000000001" as="targetPoint" />
          </mxGeometry>
        </mxCell>
        <mxCell id="luAJzqGbtWHjG9p20asQ-24" value="Ermittle alle auf ein Element zutreffenden Regeln" style="rounded=0;whiteSpace=wrap;html=1;" vertex="1" parent="1">
          <mxGeometry x="292" y="3626" width="180" height="60" as="geometry" />
        </mxCell>
        <mxCell id="luAJzqGbtWHjG9p20asQ-32" style="edgeStyle=orthogonalEdgeStyle;rounded=0;orthogonalLoop=1;jettySize=auto;html=1;" edge="1" parent="1" source="luAJzqGbtWHjG9p20asQ-27" target="luAJzqGbtWHjG9p20asQ-28">
          <mxGeometry relative="1" as="geometry" />
        </mxCell>
        <mxCell id="luAJzqGbtWHjG9p20asQ-27" value="Wende die Deklarationen aller zutreffenden Regeln auf das Element an" style="rounded=0;whiteSpace=wrap;html=1;" vertex="1" parent="1">
          <mxGeometry x="291" y="3723" width="182" height="60" as="geometry" />
        </mxCell>
        <mxCell id="luAJzqGbtWHjG9p20asQ-33" value="[nein]" style="edgeStyle=orthogonalEdgeStyle;rounded=0;orthogonalLoop=1;jettySize=auto;html=1;" edge="1" parent="1" source="luAJzqGbtWHjG9p20asQ-28" target="luAJzqGbtWHjG9p20asQ-29">
          <mxGeometry relative="1" as="geometry" />
        </mxCell>
        <mxCell id="luAJzqGbtWHjG9p20asQ-37" style="edgeStyle=orthogonalEdgeStyle;rounded=0;orthogonalLoop=1;jettySize=auto;html=1;" edge="1" parent="1" source="luAJzqGbtWHjG9p20asQ-28" target="luAJzqGbtWHjG9p20asQ-36">
          <mxGeometry relative="1" as="geometry" />
        </mxCell>
        <mxCell id="luAJzqGbtWHjG9p20asQ-28" value="" style="rhombus;whiteSpace=wrap;html=1;" vertex="1" parent="1">
          <mxGeometry x="360.5" y="3817" width="43" height="43" as="geometry" />
        </mxCell>
        <mxCell id="luAJzqGbtWHjG9p20asQ-29" value="Fertig" style="ellipse;html=1;shape=endState;fillColor=strokeColor;labelPosition=center;verticalLabelPosition=bottom;align=center;verticalAlign=top;" vertex="1" parent="1">
          <mxGeometry x="367" y="3948" width="30" height="30" as="geometry" />
        </mxCell>
        <mxCell id="luAJzqGbtWHjG9p20asQ-31" style="edgeStyle=orthogonalEdgeStyle;rounded=0;orthogonalLoop=1;jettySize=auto;html=1;" edge="1" parent="1" source="luAJzqGbtWHjG9p20asQ-30" target="luAJzqGbtWHjG9p20asQ-24">
          <mxGeometry relative="1" as="geometry" />
        </mxCell>
        <mxCell id="luAJzqGbtWHjG9p20asQ-30" value="" style="ellipse;fillColor=strokeColor;html=1;" vertex="1" parent="1">
          <mxGeometry x="367" y="3556" width="30" height="30" as="geometry" />
        </mxCell>
        <mxCell id="luAJzqGbtWHjG9p20asQ-35" style="rounded=0;orthogonalLoop=1;jettySize=auto;html=1;endArrow=none;endFill=0;dashed=1;" edge="1" parent="1" source="luAJzqGbtWHjG9p20asQ-34" target="luAJzqGbtWHjG9p20asQ-28">
          <mxGeometry relative="1" as="geometry" />
        </mxCell>
        <mxCell id="luAJzqGbtWHjG9p20asQ-34" value="Gibt es Deklarationen die in Konflikt stehen?" style="shape=note;whiteSpace=wrap;html=1;backgroundOutline=1;darkOpacity=0.05;size=11;shadow=1;strokeColor=#d6b656;align=center;verticalAlign=middle;fontFamily=Helvetica;fontSize=12;fontColor=default;fillColor=#fff2cc;" vertex="1" parent="1">
          <mxGeometry x="121" y="3809" width="130" height="59" as="geometry" />
        </mxCell>
        <mxCell id="luAJzqGbtWHjG9p20asQ-40" style="edgeStyle=orthogonalEdgeStyle;rounded=0;orthogonalLoop=1;jettySize=auto;html=1;" edge="1" parent="1" source="luAJzqGbtWHjG9p20asQ-36" target="luAJzqGbtWHjG9p20asQ-39">
          <mxGeometry relative="1" as="geometry" />
        </mxCell>
        <mxCell id="luAJzqGbtWHjG9p20asQ-36" value="Ernenne eine der in Konflikt stehenden Deklarationen als &quot;Gewinner&quot;. Verwende den Cascade Algorithmus." style="rounded=0;whiteSpace=wrap;html=1;" vertex="1" parent="1">
          <mxGeometry x="485" y="3808.5" width="240" height="60" as="geometry" />
        </mxCell>
        <mxCell id="luAJzqGbtWHjG9p20asQ-41" style="edgeStyle=orthogonalEdgeStyle;rounded=0;orthogonalLoop=1;jettySize=auto;html=1;" edge="1" parent="1" source="luAJzqGbtWHjG9p20asQ-39" target="luAJzqGbtWHjG9p20asQ-29">
          <mxGeometry relative="1" as="geometry" />
        </mxCell>
        <mxCell id="luAJzqGbtWHjG9p20asQ-39" value="Wende die &quot;Gewinner&quot; Deklaration auf das Element an." style="rounded=0;whiteSpace=wrap;html=1;" vertex="1" parent="1">
          <mxGeometry x="485" y="3933" width="240" height="60" as="geometry" />
        </mxCell>
        <mxCell id="luAJzqGbtWHjG9p20asQ-46" style="edgeStyle=orthogonalEdgeStyle;rounded=0;orthogonalLoop=1;jettySize=auto;html=1;" edge="1" parent="1" source="luAJzqGbtWHjG9p20asQ-42" target="luAJzqGbtWHjG9p20asQ-45">
          <mxGeometry relative="1" as="geometry" />
        </mxCell>
        <mxCell id="luAJzqGbtWHjG9p20asQ-42" value="Ermittle die Origins und Importance aller in Konflikt stehenden Deklarationen und sortiere sie nach Priorität." style="rounded=0;whiteSpace=wrap;html=1;" vertex="1" parent="1">
          <mxGeometry x="321" y="4758" width="240" height="60" as="geometry" />
        </mxCell>
        <mxCell id="luAJzqGbtWHjG9p20asQ-47" style="rounded=0;orthogonalLoop=1;jettySize=auto;html=1;dashed=1;endArrow=none;endFill=0;" edge="1" parent="1" source="luAJzqGbtWHjG9p20asQ-44" target="luAJzqGbtWHjG9p20asQ-45">
          <mxGeometry relative="1" as="geometry" />
        </mxCell>
        <mxCell id="luAJzqGbtWHjG9p20asQ-44" value="Existiert genau eine Deklaration, deren Origin/Importance mehr Priorität hat, als die der anderen Deklarationen?" style="shape=note;whiteSpace=wrap;html=1;backgroundOutline=1;darkOpacity=0.05;size=11;fillColor=#fff2cc;strokeColor=#d6b656;shadow=1;" vertex="1" parent="1">
          <mxGeometry x="97" y="4853" width="249" height="59" as="geometry" />
        </mxCell>
        <mxCell id="luAJzqGbtWHjG9p20asQ-49" value="[ja]" style="edgeStyle=orthogonalEdgeStyle;rounded=0;orthogonalLoop=1;jettySize=auto;html=1;" edge="1" parent="1" source="luAJzqGbtWHjG9p20asQ-45" target="luAJzqGbtWHjG9p20asQ-48">
          <mxGeometry relative="1" as="geometry" />
        </mxCell>
        <mxCell id="luAJzqGbtWHjG9p20asQ-51" value="[nein]" style="edgeStyle=orthogonalEdgeStyle;rounded=0;orthogonalLoop=1;jettySize=auto;html=1;" edge="1" parent="1" source="luAJzqGbtWHjG9p20asQ-45" target="luAJzqGbtWHjG9p20asQ-50">
          <mxGeometry relative="1" as="geometry" />
        </mxCell>
        <mxCell id="luAJzqGbtWHjG9p20asQ-45" value="" style="rhombus;whiteSpace=wrap;html=1;" vertex="1" parent="1">
          <mxGeometry x="419.5" y="4861" width="43" height="43" as="geometry" />
        </mxCell>
        <mxCell id="luAJzqGbtWHjG9p20asQ-48" value="Gewinner ermittelt" style="ellipse;html=1;shape=endState;fillColor=strokeColor;labelPosition=center;verticalLabelPosition=bottom;align=center;verticalAlign=top;" vertex="1" parent="1">
          <mxGeometry x="643" y="4867.5" width="30" height="30" as="geometry" />
        </mxCell>
        <mxCell id="luAJzqGbtWHjG9p20asQ-53" style="edgeStyle=orthogonalEdgeStyle;rounded=0;orthogonalLoop=1;jettySize=auto;html=1;" edge="1" parent="1" source="luAJzqGbtWHjG9p20asQ-50" target="luAJzqGbtWHjG9p20asQ-52">
          <mxGeometry relative="1" as="geometry" />
        </mxCell>
        <mxCell id="luAJzqGbtWHjG9p20asQ-50" value="Ignore von nun an Deklarationen, deren Origin / Importance weniger Priorität haben, als die höchste ermittelte Priorität." style="rounded=0;whiteSpace=wrap;html=1;" vertex="1" parent="1">
          <mxGeometry x="321" y="4953" width="240" height="60" as="geometry" />
        </mxCell>
        <mxCell id="luAJzqGbtWHjG9p20asQ-55" style="edgeStyle=orthogonalEdgeStyle;rounded=0;orthogonalLoop=1;jettySize=auto;html=1;" edge="1" parent="1" source="luAJzqGbtWHjG9p20asQ-52" target="luAJzqGbtWHjG9p20asQ-54">
          <mxGeometry relative="1" as="geometry" />
        </mxCell>
        <mxCell id="luAJzqGbtWHjG9p20asQ-52" value="Sortiere die verbleibenden Deklarationen nach deren Selektor-Spezifizität" style="rounded=0;whiteSpace=wrap;html=1;" vertex="1" parent="1">
          <mxGeometry x="321" y="5041" width="240" height="60" as="geometry" />
        </mxCell>
        <mxCell id="luAJzqGbtWHjG9p20asQ-59" value="[ja]" style="edgeStyle=orthogonalEdgeStyle;rounded=0;orthogonalLoop=1;jettySize=auto;html=1;" edge="1" parent="1" source="luAJzqGbtWHjG9p20asQ-54" target="luAJzqGbtWHjG9p20asQ-58">
          <mxGeometry relative="1" as="geometry" />
        </mxCell>
        <mxCell id="luAJzqGbtWHjG9p20asQ-61" value="[nein]" style="edgeStyle=orthogonalEdgeStyle;rounded=0;orthogonalLoop=1;jettySize=auto;html=1;" edge="1" parent="1" source="luAJzqGbtWHjG9p20asQ-54" target="luAJzqGbtWHjG9p20asQ-60">
          <mxGeometry relative="1" as="geometry" />
        </mxCell>
        <mxCell id="luAJzqGbtWHjG9p20asQ-54" value="" style="rhombus;whiteSpace=wrap;html=1;" vertex="1" parent="1">
          <mxGeometry x="419.5" y="5138" width="43" height="43" as="geometry" />
        </mxCell>
        <mxCell id="luAJzqGbtWHjG9p20asQ-56" value="Existiert genau eine Deklaration, deren Selector-Spezifizität größer ist als die der anderen Deklarationen?" style="shape=note;whiteSpace=wrap;html=1;backgroundOutline=1;darkOpacity=0.05;size=11;fillColor=#fff2cc;strokeColor=#d6b656;shadow=1;" vertex="1" parent="1">
          <mxGeometry x="97" y="5130" width="249" height="59" as="geometry" />
        </mxCell>
        <mxCell id="luAJzqGbtWHjG9p20asQ-58" value="Gewinner ermittelt" style="ellipse;html=1;shape=endState;fillColor=strokeColor;labelPosition=center;verticalLabelPosition=bottom;align=center;verticalAlign=top;" vertex="1" parent="1">
          <mxGeometry x="640" y="5144.5" width="30" height="30" as="geometry" />
        </mxCell>
        <mxCell id="luAJzqGbtWHjG9p20asQ-64" style="edgeStyle=orthogonalEdgeStyle;rounded=0;orthogonalLoop=1;jettySize=auto;html=1;" edge="1" parent="1" source="luAJzqGbtWHjG9p20asQ-60" target="luAJzqGbtWHjG9p20asQ-63">
          <mxGeometry relative="1" as="geometry" />
        </mxCell>
        <mxCell id="luAJzqGbtWHjG9p20asQ-60" value="Ignore von nun an Deklarationen, deren Selektor-Spezifizität nicht der höchsten ermittelten Spezifizität entspricht." style="rounded=0;whiteSpace=wrap;html=1;" vertex="1" parent="1">
          <mxGeometry x="321" y="5229" width="240" height="60" as="geometry" />
        </mxCell>
        <mxCell id="luAJzqGbtWHjG9p20asQ-62" style="rounded=0;orthogonalLoop=1;jettySize=auto;html=1;dashed=1;endArrow=none;endFill=0;" edge="1" parent="1" source="luAJzqGbtWHjG9p20asQ-56" target="luAJzqGbtWHjG9p20asQ-54">
          <mxGeometry relative="1" as="geometry">
            <mxPoint x="350" y="5119" as="sourcePoint" />
            <mxPoint x="424" y="5119" as="targetPoint" />
          </mxGeometry>
        </mxCell>
        <mxCell id="luAJzqGbtWHjG9p20asQ-93" style="edgeStyle=none;rounded=0;orthogonalLoop=1;jettySize=auto;html=1;strokeColor=default;align=center;verticalAlign=middle;fontFamily=Helvetica;fontSize=11;fontColor=default;labelBackgroundColor=default;endArrow=classic;" edge="1" parent="1" source="luAJzqGbtWHjG9p20asQ-63" target="luAJzqGbtWHjG9p20asQ-92">
          <mxGeometry relative="1" as="geometry" />
        </mxCell>
        <mxCell id="luAJzqGbtWHjG9p20asQ-63" value="Sortiere die verbleibenden Deklarationen nach deren Entfernungen zu deren Scope-Roots." style="rounded=0;whiteSpace=wrap;html=1;" vertex="1" parent="1">
          <mxGeometry x="321" y="5318" width="240" height="60" as="geometry" />
        </mxCell>
        <mxCell id="luAJzqGbtWHjG9p20asQ-76" style="edgeStyle=none;rounded=0;orthogonalLoop=1;jettySize=auto;html=1;strokeColor=default;align=center;verticalAlign=middle;fontFamily=Helvetica;fontSize=11;fontColor=default;labelBackgroundColor=default;endArrow=classic;" edge="1" parent="1" source="luAJzqGbtWHjG9p20asQ-65" target="luAJzqGbtWHjG9p20asQ-66">
          <mxGeometry relative="1" as="geometry" />
        </mxCell>
        <mxCell id="luAJzqGbtWHjG9p20asQ-77" style="edgeStyle=none;rounded=0;orthogonalLoop=1;jettySize=auto;html=1;strokeColor=#FF0000;align=center;verticalAlign=middle;fontFamily=Helvetica;fontSize=11;fontColor=default;labelBackgroundColor=default;endArrow=classic;" edge="1" parent="1" source="luAJzqGbtWHjG9p20asQ-65" target="luAJzqGbtWHjG9p20asQ-67">
          <mxGeometry relative="1" as="geometry" />
        </mxCell>
        <mxCell id="luAJzqGbtWHjG9p20asQ-65" value="" style="ellipse;whiteSpace=wrap;html=1;aspect=fixed;" vertex="1" parent="1">
          <mxGeometry x="259.25" y="4387" width="37" height="37" as="geometry" />
        </mxCell>
        <mxCell id="luAJzqGbtWHjG9p20asQ-66" value="" style="ellipse;whiteSpace=wrap;html=1;aspect=fixed;" vertex="1" parent="1">
          <mxGeometry x="222.25" y="4449" width="37" height="37" as="geometry" />
        </mxCell>
        <mxCell id="luAJzqGbtWHjG9p20asQ-80" style="edgeStyle=none;rounded=0;orthogonalLoop=1;jettySize=auto;html=1;strokeColor=default;align=center;verticalAlign=middle;fontFamily=Helvetica;fontSize=11;fontColor=default;labelBackgroundColor=default;endArrow=classic;" edge="1" parent="1" source="luAJzqGbtWHjG9p20asQ-67" target="luAJzqGbtWHjG9p20asQ-78">
          <mxGeometry relative="1" as="geometry" />
        </mxCell>
        <mxCell id="luAJzqGbtWHjG9p20asQ-81" style="edgeStyle=none;rounded=0;orthogonalLoop=1;jettySize=auto;html=1;strokeColor=default;align=center;verticalAlign=middle;fontFamily=Helvetica;fontSize=11;fontColor=default;labelBackgroundColor=default;endArrow=classic;" edge="1" parent="1" source="luAJzqGbtWHjG9p20asQ-67" target="luAJzqGbtWHjG9p20asQ-79">
          <mxGeometry relative="1" as="geometry" />
        </mxCell>
        <mxCell id="luAJzqGbtWHjG9p20asQ-67" value="E" style="ellipse;whiteSpace=wrap;html=1;aspect=fixed;fillColor=#ffcccc;strokeColor=#36393d;" vertex="1" parent="1">
          <mxGeometry x="299.25" y="4449" width="37" height="37" as="geometry" />
        </mxCell>
        <mxCell id="luAJzqGbtWHjG9p20asQ-68" value="Hinweis: Eine unscoped Declaration wird als scoped Declaration gewertet, deren Scope-Root das html Element ist." style="shape=note;whiteSpace=wrap;html=1;backgroundOutline=1;darkOpacity=0.05;size=11;fillColor=#fff2cc;strokeColor=#d6b656;shadow=1;" vertex="1" parent="1">
          <mxGeometry x="81" y="5309.5" width="192" height="72" as="geometry" />
        </mxCell>
        <mxCell id="luAJzqGbtWHjG9p20asQ-69" style="rounded=0;orthogonalLoop=1;jettySize=auto;html=1;dashed=1;endArrow=none;endFill=0;" edge="1" parent="1" source="luAJzqGbtWHjG9p20asQ-68" target="luAJzqGbtWHjG9p20asQ-63">
          <mxGeometry relative="1" as="geometry">
            <mxPoint x="356" y="5170" as="sourcePoint" />
            <mxPoint x="430" y="5170" as="targetPoint" />
          </mxGeometry>
        </mxCell>
        <mxCell id="luAJzqGbtWHjG9p20asQ-75" style="edgeStyle=none;rounded=0;orthogonalLoop=1;jettySize=auto;html=1;strokeColor=#FF0000;align=center;verticalAlign=middle;fontFamily=Helvetica;fontSize=11;fontColor=default;labelBackgroundColor=default;endArrow=classic;" edge="1" parent="1" source="luAJzqGbtWHjG9p20asQ-70" target="luAJzqGbtWHjG9p20asQ-65">
          <mxGeometry relative="1" as="geometry" />
        </mxCell>
        <mxCell id="luAJzqGbtWHjG9p20asQ-83" style="edgeStyle=none;rounded=0;orthogonalLoop=1;jettySize=auto;html=1;strokeColor=default;align=center;verticalAlign=middle;fontFamily=Helvetica;fontSize=11;fontColor=default;labelBackgroundColor=default;endArrow=classic;" edge="1" parent="1" source="luAJzqGbtWHjG9p20asQ-70" target="luAJzqGbtWHjG9p20asQ-82">
          <mxGeometry relative="1" as="geometry" />
        </mxCell>
        <mxCell id="luAJzqGbtWHjG9p20asQ-70" value="R1" style="ellipse;whiteSpace=wrap;html=1;aspect=fixed;fillColor=#cdeb8b;strokeColor=#36393d;" vertex="1" parent="1">
          <mxGeometry x="305.25" y="4324" width="37" height="37" as="geometry" />
        </mxCell>
        <mxCell id="luAJzqGbtWHjG9p20asQ-73" style="rounded=0;orthogonalLoop=1;jettySize=auto;html=1;strokeColor=#FF0000;" edge="1" parent="1" source="luAJzqGbtWHjG9p20asQ-71" target="luAJzqGbtWHjG9p20asQ-70">
          <mxGeometry relative="1" as="geometry" />
        </mxCell>
        <mxCell id="luAJzqGbtWHjG9p20asQ-74" style="edgeStyle=none;rounded=0;orthogonalLoop=1;jettySize=auto;html=1;strokeColor=default;align=center;verticalAlign=middle;fontFamily=Helvetica;fontSize=11;fontColor=default;labelBackgroundColor=default;endArrow=classic;" edge="1" parent="1" source="luAJzqGbtWHjG9p20asQ-71" target="luAJzqGbtWHjG9p20asQ-72">
          <mxGeometry relative="1" as="geometry" />
        </mxCell>
        <mxCell id="luAJzqGbtWHjG9p20asQ-71" value="R2" style="ellipse;whiteSpace=wrap;html=1;aspect=fixed;fillColor=#cce5ff;strokeColor=#36393d;" vertex="1" parent="1">
          <mxGeometry x="347.25" y="4266.5" width="37" height="37" as="geometry" />
        </mxCell>
        <mxCell id="luAJzqGbtWHjG9p20asQ-72" value="" style="ellipse;whiteSpace=wrap;html=1;aspect=fixed;" vertex="1" parent="1">
          <mxGeometry x="394.25" y="4327" width="37" height="37" as="geometry" />
        </mxCell>
        <mxCell id="luAJzqGbtWHjG9p20asQ-78" value="" style="ellipse;whiteSpace=wrap;html=1;aspect=fixed;" vertex="1" parent="1">
          <mxGeometry x="262.25" y="4515" width="37" height="37" as="geometry" />
        </mxCell>
        <mxCell id="luAJzqGbtWHjG9p20asQ-79" value="" style="ellipse;whiteSpace=wrap;html=1;aspect=fixed;" vertex="1" parent="1">
          <mxGeometry x="347.25" y="4513" width="37" height="37" as="geometry" />
        </mxCell>
        <mxCell id="luAJzqGbtWHjG9p20asQ-82" value="" style="ellipse;whiteSpace=wrap;html=1;aspect=fixed;" vertex="1" parent="1">
          <mxGeometry x="342.25" y="4387" width="37" height="37" as="geometry" />
        </mxCell>
        <mxCell id="luAJzqGbtWHjG9p20asQ-85" style="edgeStyle=none;rounded=0;orthogonalLoop=1;jettySize=auto;html=1;strokeColor=default;align=center;verticalAlign=middle;fontFamily=Helvetica;fontSize=11;fontColor=default;labelBackgroundColor=default;endArrow=none;dashed=1;endFill=0;" edge="1" parent="1" source="luAJzqGbtWHjG9p20asQ-84" target="luAJzqGbtWHjG9p20asQ-67">
          <mxGeometry relative="1" as="geometry" />
        </mxCell>
        <mxCell id="luAJzqGbtWHjG9p20asQ-84" value="Für dieses Element soll der Declaration Conflict gelöst werden." style="shape=note;whiteSpace=wrap;html=1;backgroundOutline=1;darkOpacity=0.05;size=11;fillColor=#fff2cc;strokeColor=#d6b656;shadow=1;" vertex="1" parent="1">
          <mxGeometry x="472.25" y="4434" width="192" height="66" as="geometry" />
        </mxCell>
        <mxCell id="luAJzqGbtWHjG9p20asQ-86" value="Dieses Element ist eine Scope-Root für eine in Konflikt stehende Deklaration" style="shape=note;whiteSpace=wrap;html=1;backgroundOutline=1;darkOpacity=0.05;size=11;fillColor=#fff2cc;strokeColor=#d6b656;shadow=1;" vertex="1" parent="1">
          <mxGeometry x="482.25" y="4252" width="192" height="79" as="geometry" />
        </mxCell>
        <mxCell id="luAJzqGbtWHjG9p20asQ-87" style="edgeStyle=none;rounded=0;orthogonalLoop=1;jettySize=auto;html=1;strokeColor=default;align=center;verticalAlign=middle;fontFamily=Helvetica;fontSize=11;fontColor=default;labelBackgroundColor=default;endArrow=none;dashed=1;endFill=0;" edge="1" parent="1" source="luAJzqGbtWHjG9p20asQ-86" target="luAJzqGbtWHjG9p20asQ-71">
          <mxGeometry relative="1" as="geometry">
            <mxPoint x="462.25" y="4489" as="sourcePoint" />
            <mxPoint x="346.25" y="4479" as="targetPoint" />
          </mxGeometry>
        </mxCell>
        <mxCell id="luAJzqGbtWHjG9p20asQ-89" style="edgeStyle=none;rounded=0;orthogonalLoop=1;jettySize=auto;html=1;strokeColor=default;align=center;verticalAlign=middle;fontFamily=Helvetica;fontSize=11;fontColor=default;labelBackgroundColor=default;endArrow=none;endFill=0;dashed=1;" edge="1" parent="1" source="luAJzqGbtWHjG9p20asQ-88" target="luAJzqGbtWHjG9p20asQ-70">
          <mxGeometry relative="1" as="geometry" />
        </mxCell>
        <mxCell id="luAJzqGbtWHjG9p20asQ-88" value="Dieses Element ist ebenfalls eine Scope-Root für eine Deklaration, die in Konflikt mit anderen steht." style="shape=note;whiteSpace=wrap;html=1;backgroundOutline=1;darkOpacity=0.05;size=11;fillColor=#fff2cc;strokeColor=#d6b656;shadow=1;" vertex="1" parent="1">
          <mxGeometry x="207.75" y="4160" width="232" height="66" as="geometry" />
        </mxCell>
        <mxCell id="luAJzqGbtWHjG9p20asQ-96" style="edgeStyle=none;rounded=0;orthogonalLoop=1;jettySize=auto;html=1;strokeColor=default;align=center;verticalAlign=middle;fontFamily=Helvetica;fontSize=11;fontColor=default;labelBackgroundColor=default;endArrow=none;dashed=1;endFill=0;" edge="1" parent="1" source="luAJzqGbtWHjG9p20asQ-91" target="luAJzqGbtWHjG9p20asQ-67">
          <mxGeometry relative="1" as="geometry" />
        </mxCell>
        <mxCell id="luAJzqGbtWHjG9p20asQ-91" value="Entfernung E zu R1 ist 2. Entfernung E zu R2 ist 3.&amp;nbsp;" style="shape=note;whiteSpace=wrap;html=1;backgroundOutline=1;darkOpacity=0.05;size=11;fillColor=#fff2cc;strokeColor=#d6b656;shadow=1;" vertex="1" parent="1">
          <mxGeometry x="472.25" y="4513" width="192" height="50" as="geometry" />
        </mxCell>
        <mxCell id="luAJzqGbtWHjG9p20asQ-95" value="[nein]" style="edgeStyle=none;rounded=0;orthogonalLoop=1;jettySize=auto;html=1;strokeColor=default;align=center;verticalAlign=middle;fontFamily=Helvetica;fontSize=11;fontColor=default;labelBackgroundColor=default;endArrow=classic;" edge="1" parent="1" source="luAJzqGbtWHjG9p20asQ-92" target="luAJzqGbtWHjG9p20asQ-94">
          <mxGeometry relative="1" as="geometry" />
        </mxCell>
        <mxCell id="luAJzqGbtWHjG9p20asQ-102" style="edgeStyle=none;rounded=0;orthogonalLoop=1;jettySize=auto;html=1;strokeColor=default;align=center;verticalAlign=middle;fontFamily=Helvetica;fontSize=11;fontColor=default;labelBackgroundColor=default;endArrow=classic;" edge="1" parent="1" source="luAJzqGbtWHjG9p20asQ-92" target="luAJzqGbtWHjG9p20asQ-101">
          <mxGeometry relative="1" as="geometry" />
        </mxCell>
        <mxCell id="luAJzqGbtWHjG9p20asQ-103" value="[ja]" style="edgeLabel;html=1;align=center;verticalAlign=middle;resizable=0;points=[];fontFamily=Helvetica;fontSize=11;fontColor=default;labelBackgroundColor=default;" vertex="1" connectable="0" parent="luAJzqGbtWHjG9p20asQ-102">
          <mxGeometry x="-0.147" y="-1" relative="1" as="geometry">
            <mxPoint as="offset" />
          </mxGeometry>
        </mxCell>
        <mxCell id="luAJzqGbtWHjG9p20asQ-92" value="" style="rhombus;whiteSpace=wrap;html=1;" vertex="1" parent="1">
          <mxGeometry x="419.5" y="5415" width="43" height="43" as="geometry" />
        </mxCell>
        <mxCell id="luAJzqGbtWHjG9p20asQ-100" style="edgeStyle=none;rounded=0;orthogonalLoop=1;jettySize=auto;html=1;strokeColor=default;align=center;verticalAlign=middle;fontFamily=Helvetica;fontSize=11;fontColor=default;labelBackgroundColor=default;endArrow=classic;" edge="1" parent="1" source="luAJzqGbtWHjG9p20asQ-94" target="luAJzqGbtWHjG9p20asQ-99">
          <mxGeometry relative="1" as="geometry" />
        </mxCell>
        <mxCell id="luAJzqGbtWHjG9p20asQ-94" value="Ignoriere von nun an Deklarationen, deren Entfernung zur Scope-Root nicht dem ermitteltem Minimum entspricht." style="rounded=0;whiteSpace=wrap;html=1;" vertex="1" parent="1">
          <mxGeometry x="321" y="5514" width="240" height="60" as="geometry" />
        </mxCell>
        <mxCell id="luAJzqGbtWHjG9p20asQ-98" style="edgeStyle=none;rounded=0;orthogonalLoop=1;jettySize=auto;html=1;strokeColor=default;align=center;verticalAlign=middle;fontFamily=Helvetica;fontSize=11;fontColor=default;labelBackgroundColor=default;endArrow=none;dashed=1;endFill=0;" edge="1" parent="1" source="luAJzqGbtWHjG9p20asQ-97" target="luAJzqGbtWHjG9p20asQ-92">
          <mxGeometry relative="1" as="geometry" />
        </mxCell>
        <mxCell id="luAJzqGbtWHjG9p20asQ-97" value="Existiert genau eine Deklaration, deren Entfernung zur Scope-Root am geringsten ist?" style="shape=note;whiteSpace=wrap;html=1;backgroundOutline=1;darkOpacity=0.05;size=11;fillColor=#fff2cc;strokeColor=#d6b656;shadow=1;" vertex="1" parent="1">
          <mxGeometry x="75" y="5435" width="192" height="72" as="geometry" />
        </mxCell>
        <mxCell id="luAJzqGbtWHjG9p20asQ-105" style="edgeStyle=none;rounded=0;orthogonalLoop=1;jettySize=auto;html=1;strokeColor=default;align=center;verticalAlign=middle;fontFamily=Helvetica;fontSize=11;fontColor=default;labelBackgroundColor=default;endArrow=classic;" edge="1" parent="1" source="luAJzqGbtWHjG9p20asQ-99" target="luAJzqGbtWHjG9p20asQ-104">
          <mxGeometry relative="1" as="geometry" />
        </mxCell>
        <mxCell id="luAJzqGbtWHjG9p20asQ-99" value="Ernenne die Deklaration als Gewinner, die im Quelltext zuletzt aufgeführt ist." style="rounded=0;whiteSpace=wrap;html=1;" vertex="1" parent="1">
          <mxGeometry x="321" y="5614" width="240" height="60" as="geometry" />
        </mxCell>
        <mxCell id="luAJzqGbtWHjG9p20asQ-101" value="Gewinner ermittelt" style="ellipse;html=1;shape=endState;fillColor=strokeColor;labelPosition=center;verticalLabelPosition=bottom;align=center;verticalAlign=top;" vertex="1" parent="1">
          <mxGeometry x="617" y="5421.5" width="30" height="30" as="geometry" />
        </mxCell>
        <mxCell id="luAJzqGbtWHjG9p20asQ-104" value="Gewinner ermittelt" style="ellipse;html=1;shape=endState;fillColor=strokeColor;labelPosition=center;verticalLabelPosition=bottom;align=center;verticalAlign=top;" vertex="1" parent="1">
          <mxGeometry x="426" y="5715" width="30" height="30" as="geometry" />
        </mxCell>
        <mxCell id="luAJzqGbtWHjG9p20asQ-107" style="edgeStyle=none;rounded=0;orthogonalLoop=1;jettySize=auto;html=1;strokeColor=default;align=center;verticalAlign=middle;fontFamily=Helvetica;fontSize=11;fontColor=default;labelBackgroundColor=default;endArrow=classic;" edge="1" parent="1" source="luAJzqGbtWHjG9p20asQ-106" target="luAJzqGbtWHjG9p20asQ-42">
          <mxGeometry relative="1" as="geometry" />
        </mxCell>
        <mxCell id="luAJzqGbtWHjG9p20asQ-106" value="" style="ellipse;fillColor=strokeColor;html=1;" vertex="1" parent="1">
          <mxGeometry x="426" y="4697" width="30" height="30" as="geometry" />
        </mxCell>
        <mxCell id="luAJzqGbtWHjG9p20asQ-108" value="&lt;h1&gt;CASCADE Algorithmus&lt;/h1&gt;" style="text;html=1;spacing=5;spacingTop=-20;whiteSpace=wrap;overflow=hidden;rounded=0;fontFamily=Helvetica;fontSize=11;fontColor=default;labelBackgroundColor=default;" vertex="1" parent="1">
          <mxGeometry x="75" y="4747" width="190" height="71" as="geometry" />
        </mxCell>
        <mxCell id="luAJzqGbtWHjG9p20asQ-110" style="edgeStyle=none;rounded=0;orthogonalLoop=1;jettySize=auto;html=1;strokeColor=default;align=center;verticalAlign=middle;fontFamily=Helvetica;fontSize=11;fontColor=default;labelBackgroundColor=default;endArrow=none;dashed=1;endFill=0;" edge="1" parent="1" source="luAJzqGbtWHjG9p20asQ-109" target="luAJzqGbtWHjG9p20asQ-42">
          <mxGeometry relative="1" as="geometry" />
        </mxCell>
        <mxCell id="luAJzqGbtWHjG9p20asQ-113" style="edgeStyle=none;rounded=0;orthogonalLoop=1;jettySize=auto;html=1;strokeColor=default;align=center;verticalAlign=middle;fontFamily=Helvetica;fontSize=11;fontColor=default;labelBackgroundColor=default;endArrow=none;dashed=1;endFill=0;entryX=0.75;entryY=0;entryDx=0;entryDy=0;curved=1;" edge="1" parent="1" source="luAJzqGbtWHjG9p20asQ-109" target="luAJzqGbtWHjG9p20asQ-112">
          <mxGeometry relative="1" as="geometry">
            <Array as="points">
              <mxPoint x="824" y="5488" />
            </Array>
          </mxGeometry>
        </mxCell>
        <mxCell id="luAJzqGbtWHjG9p20asQ-109" value="Die Priorität richtet sich nach Art des Stylesheets (Browser, Author, User, Inline Style), der Layer im Stylesheet und der !important Annotation" style="shape=note;whiteSpace=wrap;html=1;backgroundOutline=1;darkOpacity=0.05;size=11;fillColor=#fff2cc;strokeColor=#d6b656;shadow=1;" vertex="1" parent="1">
          <mxGeometry x="612" y="4739" width="189" height="98" as="geometry" />
        </mxCell>
        <mxCell id="luAJzqGbtWHjG9p20asQ-112" value="" style="shape=image;verticalLabelPosition=bottom;labelBackgroundColor=default;verticalAlign=top;aspect=fixed;imageAspect=0;image=data:image/png,iVBORw0KGgoAAAANSUhEUgAAAkYAAANSCAIAAAAPj5YCAAAAAXNSR0IArs4c6QAAAARnQU1BAACxjwv8YQUAAAAJcEhZcwAADsMAAA7DAcdvqGQAAMxISURBVHhe7P0PXBvXnS9+T56wVdz0yn75qezr5c/L+dV0UxsnxtDGlVwSiTgGxwFMHI3hCWC2jFE2BLZ14NUG2K2Nm9Y4qS3hxmD3twi3BpONg9x1orQuYuv1sLV/EvmDcFPje2OL3Phn1HDL3JAwjffFc2bmIASMQNjYBuXzrhqf+eronDOj0Xw5o5F018jICMMwXV1da9euJQWAaWFvAbgj8NKb1v+H/gsAADDPIaUBAECEQEoDAIAIgZQGAAARAikNAAAiBFIaAABECKQ0AACIEEhpAAAQIZDSAAAgQoSb0oRLPN8ZuHn9Io3fcgO9pMfeAbp0m4h+71stDYca7I7wuxZ6yZa5JNAlAAC47cJNab2nWNYcuKUlrmNtXbclrV12kh6dl+nSbSB22dh1iWlF5TU/rqkqYY0PZFad9tH7ptLrJFvmVC9dAgCA225GJx4rTn4oe6+1Ipav/aHdS+MSURDE67TMDAlkiZaDkDoqcfXKUl3VnCndMUTL46g+Qr1L9ajkqnPnd2svrqk++Z68phc69j3psxdWtYzPqeTxgZVV7VYSYiNID1AdPwAA3Jwbei9tscFgYpge96WrjOdATExMje0Qu27lyob3yH0+1y428e9Wrlz5tZj1nL1n9Jje56oxJ36NhFd+TZ9n4+nZPPXK0jxJrvu19eXO4AlSoJG/i9Fb7F45McgDqHWcKtfLj9DvDDxCblzpcn2+7Qw9JSj22Ln1SjSR3eWaMP/yddgdfkNZZXHSYnlZG5/zg39OZ1xNp6X0PXFlhzw2ZTxf05e/1Sc/QKG2Xl026cEHG6QHH/HI1QAAYDbd2OUhQr90AI/TKcd9pqH9o6yDv3kra7noPfhcvkNX8Zu3L1zoPLq5v+rpGhfJXqLX9mx+w3DO0f+8cOE/j6b317I/dgokql6Zt363lo8tJZXfbjDw/1Kr9KE08vqyirdI9f88mvVRVd6PXaPvXNlev5R1/EJn6/MmXyt3+DQJy40fGc75ZafUOOkyt8ZJGieTsKer+jcfJdG3f1Ohc+Q/dyR4qilc8vIMY1i9gi5Llq01pTBezyU/XR5bWb6uqLYzrpR08fZhA984NlDV9ZI1/LYv6+dvvfVkPF0GAIDZM6OU5m471NBwqKHGksa1Mkk/2JKsUeLFFVU5hlUJcYu9rv/bE1+Q83gsuWNR8pZt6X67yyMwPa7GLqb4+TJTrFYbayr7eWvrkyRphKrssflpZd2qrLK/T1f6kBuJL2QfjyPVF8rVj7rcNKcVFz9jiNPGGdhsUvvaEJkVSY0zz1SUGeO02jjTM3Wtr2aRLv3nXnf4swq3JS9iGE3s49ks43mND8ppojCae4IsWKClJdnYynoO+mkXuoSsfygcHWiI9ZIVP1+do09IiB3XIgAAzIoZpbRL3f/hcv2Hy8uYqn/R8cuSBJrRmIX3KKWrfd1+pvclVjqtR6SWO+UE4/eRMLPwK7S6doXBoI/Xhq5M6gQq6+JWKwW5kd5aM61urJCqj74pNTqAALlx5t7R8OJ4g94Qv5jxXSaPcpSsp43kHySZUgx6v0sXK83PBoeDQgzj850jLWhHewhaWfLfQBfLYulAQ6yXcmdgvQAAYNbNKKVt+6fm1lZyq99TnBavMtEgh3Udk1D5lnxlBXUkS0fSko4kik/oYV3+PECvELoyqROo7HufVwpyIwnVv6E1ZUeylil3TiI3zgyN5qbRTwLELSdTqZwjyqUfVGmSUkcWn7RdxzTYT429xSaeebPRz+SkJE9cXyWHBbq4fJEONMR6KXcCAMCtc2PvpYWSYPpukvdwfUuPXxD83uaSxJhM+58YZq3JspZpeMnqvOT397S88BRb4uwLWXlVUinJKi/VOHr8vi573SsXadurTIVrvfWHW7xy9ZayxJgMe+hL5pNM/5DEHKq1vtXrJ5V3mdlnnX1RjO6h7CxdS/1hl08QhD5XbUZMYnXgDTmJ1rjjn5/UOcu2cQccrk7eeYgz5jYw+j0FaZMzeEJSiY50UePw+vs89rq60YGGWC8AALjVRmQej0cphOLeHx0dbXXTpTGT4lfa9+R9m8SINebdzis07Gvf/TQNf7u4sfsTJapeedjbWGSQY0/tbm+zkoJVGV1QI+SuN31SbNwAPmorio4uauuXF4IaNxQ1eofloNT4s6Y1SlgayaASDvL5lfb9zz4yWiVvT9tFOtpJK/tJd2Ox3AMZvEse6H7lTrX18gStyDw37d4CALcCXnrTuov8nyS2rq6utWvXKkluFlwXhU8ZbeDtp4AhQYiaFA5RWRwSNfeqvfNEGiHV76VL0wjVuCCIGpUBBhOlKlPWUIiiqNGo1Au1Eea/sPaW637v737HfyBolsUnG0wJ4Z95Hejl3+9fcr/03meYhEu86z+814a1cSmPmlbp1Lf4AF9bVuv///1iX1qooQj8T0tqB3J+UZuO08QwN03/0hP9Xs9F5r7khGUReOQJx+yeeBwVFSJd3KsWDlFZPZ8RpJEw8xkRqnHt9LkmrHxGqOYzItRG+CLoc5Y/kphWVHu8w9W0Kz8tMbOqQ/kQhN+1i2V3uUY/EaFmZt8X43Pu1K98hC2prqn5cTm3MXFdYYPygcXJ7om6h5ZCuYf8D2A+G+CtZtZ6LvjtlFvI28iyueO+c+OOuzUpDb7QRP7YCy2X0w/+59sdr7Z2/D+d+zZ77D99Xdnvhas8f3WGr7dQ38MifwSQa9Vt/0Xn/5Avw3n7l6Vxp2vyDvDjapPpMnn4YkNpY2vwFG3S175oDf94tHXiFC3kl8MAzBfBO7FUnvw3n/QaUdnP1SvLceXrk8RBnj8z4YHSg9S/IIm8kCfF5dqTelaPhgUpDWadIFz1M7rRT+JHxeW8fOHCv25PYPwOS2LJKYY5VZIYwzmuemyJMTE/Hk0/PQ1pMTHlb03IdiG+jEYhutt+6mEKy6rTpA8rEjpj2T89n+A/5ORJM1cdXEwMd6Ch/JGvraxw+pVFhzw/DP7al1OO2piYmAMeMoN0WGJiLHIN+ateak84y+UvmpG+xSb4y2EA5gFlf7bZqzPlnTjTdr7XpZT/LjG/0Su9lgL7OXmNSPv52EtMeM/OrY+RK8fod7b0yqlowtcnkcXMl0i4NjMmxtYlVfCdrqHf2DT2BU/KMOyOg/IL+e8S2YMe2of6V0qJ3kZO/ioo6fudasL6ft1xkNJg1ukMWdvj/A3sxvyqQw5Xj09621I6B6tLr+3Yl8Ywafs6LrycvizJtCOBOeRyyzu4712Xl8kxfSv4ytKpvodFIn/XS3rS6qDTu5qEtQaGsXsv0WVnEx9b9dZbPzAEtTv+a1/ONdpofCKbozer5ULnqxWmyy3coXFXxgLMD6fa+011F/7zaOlaT21xgfMbP3777bf2bPa7qo9Lf/bJbE3d6S3SVzKVLnZWfb9BSjhXnS8UVLmTDnZI37K0b62r3FwXOPMR+PokJom7cLSEREqPXrhQ/ABJg67jdc7hgta3//Q/Lvy6esWpqtrAp6FOHXcvq/7t228dzF/K/7TS3iO9uNW+Uorxn9qZV92fJX3r09tvleteL3yugVSeCaQ0mH1a4563zh7dk6LpPlaSv1H/tUfoX38a7aIFUWTetmCRnOISUrYkMK/z0mvIxzt5Jj/dMO6SkKm+h0UiipNP4mu+spCWZIbyPaVpCQnLg68ZCfW1LxMVc8WGWG2cPid7M8MM3OBpEIA7Ka1wG9nPY02pJpIutm3LTdDpEh5Pk75kKXAOMOcfLMr3Oln+IYfpaeT/xPg6X3f4DRXfy4rXanWrcgoLdP6D9E/PoK9Pki5rWCi9+XzPQvJyJq9rrani150n/zFZ81/0ijnX1dE3zVMKdjwpdZ21dRN5AUpfb6H+lVJ+/pTD/2ThtiTp+53iNmfnMJ62zpm9VYeUBreEdrlp+4tHTp798H8of/09bR3/BpdslWHLKn/LeS9ztcvVwRSnBc+lpvkeFokujrw0hU8/o4sy+dtnEgJX7Gi/vICWAkJ97csk+KoXmPeimEkvgIlil9CXnXZJLHkBMdcZfx95qWkXjO7+ccuTyR+dfnqCZNJXNY3xuX6cr4/52sqHM0vqXP00KNMumDAM9a+UYny+UwxzokRPX/P5NpIAg1/yYUBKg1nnteey7Oj3QWtiTdu2GRh/7+hLIlhCeoHB73Q7O99w6kpND41/rUz7PSyxqwxrGb7puGfsPWff7044mVVbDKvosoplK6Rvlunrp9O9wNe+AHwhdfvoXEr+NnodyYLytywJn42mEt9ld9CX1IcknD6cf6g/69ULH77d0VpfZqBhdepfKcXExW1mGPbIBfpyl/1j8Pc7TQ8pDWZdXNzyi/yuyqpWl/Qb6G/ZqvbxzFrDKvnby6T50wfdgR9Gj9NnmXrqX9jj1LGG0W/BDpj2e1jic35UkdRjKyost7/F8x0tNebM8o647T/ISaAVVCVI3yzT+kLJQaf0kOrA174AfBG5X6q1d/n8PY7aV1qYtRbTA4wuJWe7jq/dL31Vk6/TZn3JrysxTXp5SjRRJDF1uzuCfv3/OrkJ3ubGFrocgvpXSukMm7N0rfX1HdL3O/k6ajNjEqs6ZvYu9oxSmug5xLHST7qI/vd4/j3loHR7iX5vJ++9OqnnSy1cRn7De6FHFOqBXQ35uVW4nm1WaU2Vrx58ZqFrZ770G+hFjX2G6pP27fIP6uhMBdWmoYYS8/OvK1dwLDekG/1+v67wMcOkl4wmoaTu6FahbmPiypWJafv82b+o2/539D6FZm3pL9/c97iGrypi2bzy1z82VL/+1h7j5G8vGyeB++XJykfFTrut9dLqf95TSMMAX0Q530u/9CN94saSN4Zy9v1su/Tn4GJT9a/2GLy1aYkr9eZGkTv46nOTX56ShMwXc/7OXZPHNnkE7YYdR1jBlrsyZnmaVVz9OK0SSkLxz48WL3RwjyQmbizvemjPL39gIq9b3eaXf1kT6/y+dOpRn+dYUvPLiulezhMpXyISzvesDHusG6M31ntJsb+tODq6mH7x1M16t9GcY258ly5NY9xXXgXpbX72qbz6d+m3XqkI9cCRK81PR6/5YfvkL8aCUML+Vp7hwcHB4c/pQgiDb34/Ovqx+m66qOZz0k7oZ1YRRpUxnw/3fzz6hA+2V0ZHm4+NfnMbwBw2y1+IFfQtfcNqrx/pVTXN63eST2bySiTU68uHDlqemfBnaQL/Wq039LsUoT6UN73rAn+GF+QP7gWE80k7Ukf5uJ9kRc7BV48WPxD4S0JqINTjxz2QiXv0yXT/Ufsb4X5dBYRPvng/ii5MJp63sebMF1oZU0H6VKcKw/kelpl8VYu30Zz4QJr0zdQdDltFlZ1JMj0YR+8D+EJS/bIk6VUV+vWrTvUroqagXp9+7ucGhJ3SxG7+KKNLT5586FH5UF7wx1ovt7AxMTEvKB/r8TZsDPp0LdFli8mQfg66NkP5uKv0XUqBz98lmmtHP383nsArH5X92vLRb1qSPzOofNxP7LIpH/eTPiF7QvocrRKXTH4gmequMRkYl6Nzxp/pg5t0bUhjMm6r+GXnkdzbmlESuF92/KJg6fstDUda+mKfO/qfrxZPcTkJQKRanFBdWZ0Q9pepzgthpzT5Y63JyycdelQ/lLdsrSmFcfZcJKlL6O2Rrig7yneThb5L7h5m+7eCPhv7QPGFX5aSf0t/eeEClyR//o5rGC5sfVv6/F3OsI0ta5mcapzH3HH//Nu3//1I6VqP/fstciYcJfLW79bysaVH//PC2w0Gvmnc52jVH7j860kMw3/QN82sEGZbnLG4+JniHCP97o/bSBufVrynXvrxv32VOSbpc28AXzzLTeQFaFpOlyJD+LM06WOtq+PGfwEeE+pDeXGrjQnMax4vmdydt+vyt+cwvPcSI7zvdjJkohf0dl+UZuzTevcyzLtv1kqfvys26KTP3xX+fTrT4eAnnRI0FOzIWqXTrUiXrw7v7rtK45Iej81PP8GnW5VVRloIEuKBmoXkj/Q+/8wurAEAgDlmRlc8qgj1obyEpE06/5vuHq/nNSY7bYdhs9f1bm/vu3YmxbQ21E9Rk9Y+kn7UM/D5O/kXrvnJn2cKfH52wZcnXgwjf9J2QgtjQjxQq/3/0hIAAMxfM0tp/R9PnMmE/FDeqqRsxut2vMn7txvWxK1NMfBnmtpOMwnG1VO8bTLh83dyfjJM+xG/YLr/a9znaH3vh/M5Wr//DMMsvsF3IwEAYI4IO6XFxmcxjPvyxDe2Qn4oT7PakM84DzXwm5NXa5m4B00Jp+z2Ht2mpEnXl0Qx0qf1PC7+khD4/J2rT/D3OKyHnIwxyzCjU70PSC20/LDE9hbvaq2peiWMz9H6+0mlhPtGvxYGAADmp7BTmm6Vwch4PZfoZYIBIT+Up139Lel9LEPKWun9t1XJm6R/spMmX1r2QNaLufHuXfnsv7iF0c/f5X97ZeLGEtd91SetOTO8GC6h2H6y2iTyR20tl1ZX10z/OVrxj24Ho5ZrAQBgXrlrZGSE/BPOT+8Lb5WvLLq27+zRHLVpkygIzJdn/iGGUIYEIepGP5gw5Bf+S6eV51zC6aqVhb37zraqjlkm8j9dx3Za3vp1MXJamMLZWwBg1uGlN60ZvJemTXtun9HV9NroD7iNdyMfypvCTD+vN8bbkJO4chNnc7hcDtvOXXZmrWn1FKcuL7/ecHBpaZX8NTAAADCfzWCWNm8Ivc5jTa//h/S9zgmZ6QWbTXH30ntgVuBPRYA7Ai+9aUViSoNbDHsLwB2Bl960bvZzaQAAAHMEUhoAAEQIpDQAAIgQSGkAABAhkNIAACBCIKUBAECEQEoDAIAIgZQGAAARYuyj1soyAADAPIVvD4EZw94CcEfgpTctnHgEAIAIgZQGAAARAikNAAAiBFIaAABECKQ0AACIEEhpAAAQIZDSAAAgQiClAQBAhEBKAwCACIGUBgAAEQIpDeCmDXntO1k2t6TlEuPvqKk66hXpHbNC9L/H9w7QhXCJfm9nr0AXZoNag+JVL39pNjsBuElIaQBj/Kdrak776ULYvI15rgerj9S/nLOCRsLkbWTt79FyaAL/Cuu8TBfCNcBbzc5eujAb1BoUzlnZU7PZCcBNQkqD20sUiImTGNUgMaQaVYR4DHmI2mOk2kO0HEyKB1cf8vnUqk1NvO5PTkjQajWkrDNW78lPkEoU6WGsgwnDEAd54Totq5jRukhRtdqK6/KKTu4reAuHaEF+JC1PI8SAVYReNZVBAoQNKQ1mn+dADOcYnetcdXAWZUH0NnLGTRxn4dJSOXuPckSTgvrUPM6SZ1wfCHpsMbUtrfnGHK62Q2XO5DtdwyYa8ywct0nPHvSMHhp9zp36xAyOKzLnH3TYLTE25ReT+lw1Zn1aEcdl6NldLp8c8zs47qjDVsjmW/LSvqYvPyWFyZyppM7trithc+1euVoY/K5d7O7XmOM/YpVHkZZjDnikO0gXh1pqzGlckdyaNAyjmYw5x0iG4Q9+oLQ4QfC68H+hQfV1CbENA+R7v5lGNrv5Ebqmk7ZwiBb6nOXrE6Xunsq3nRsbhYohr90iD9hi1q8vd/aRkK8lL5E+BYTgqoqpckmZ2EdWXC+tWpreXOOSaio7SUPLj1nSl/2CHAG4MSMyj8ejFACmNe3e4t4fXdTWTxc+aisqlhc+aDbnNF5Ugt7m3ce6h0dGhvm93y5tu/K5HPS1PWvYe5ZER9zW6DXPtl2Ro5MMX2z74e43fcrCxcYcc/MHUqn7cEbGfrf06JGRQX7vxuhoqzTMK81PZ1jPDcrhYff+jLzjUrP9bUXRT1jdn8jh3sa8NdZuuUjiYyMPG1lfuS+J1PJ+Ny0EuhgZPrsnutKljK6//ZW97fL4gx8YbEbrQrbhmuLmwDYsWiNvQ7LZo63yOM5af1hPh/FJe2X07slbOMSz0F3/RIbVQ0dxdp80CqnBIGMry1srX6EDHnZVRu+RGhh0Pr9GvpcY/G3lmp9IwSvH88iq0XXwWDOebpYGIY020BeEhAP1tDBLg9tl8dL4P7rdPX7pzNKqnOrcBA0jujts6ZtNiz6VTnkJCw2Pp9g8PUrt5EcfilNKvtMNDYfozXWZYTTxWS9Wp8eSqYUg+AWR4f3SpRNe/rUlhU8mKWf8tPptBSly6TLviNpiup+ROxDjUzYNdnTRKZHJkHSvXFixOtnffemqXA5h4hjCFOiC0SxcktB9jvdJZ9t0pmcqTGT8Ifm6O8JfF2kbZudmx0XJdWKzjrxdYQg678noDKUvFkvDGBKEAdK9T95cRGALh3gWLne7lhRmraWjMGwtMMglVTp96Z5npAGT5+TaoMj0+QXymG+ZHm1q56Upn8C/9UbhY2RcPv4ks2VDPF2HFYZNQ64uuuVTDbQvgBuHlAa3i9ZU0WToqSsyLtdn7rTJZ5wEfx/jrJNORcq3Evtlg1Y5NAdZdF9CwoP0FqslAdHbWpW/Xp9ZyO3c/2b3x0otUSRH4bHHLlgg1WSYAT//TlMNbZ/jXnLds0y5Y2YmjWHGEgoPl93jLN+yLjE1v6rVO+Vlgn7/mfDXRdqGC78yRTLw8QdKjOuNLMfVHHVfo8FgIZ4F0l0Us4DWIUmZjkJdH28rMepT2XxLTdP50U4Wm7K2tvAekRngXV6LSfrpSrJq3U27An3Vuu6Jm/yMA9w4ZbKG+SyEb2YnHj9oNisnHscM9/9298bH6rvl03F7z9FoELeVNPARXZjIW78xp/GicpZspL+tePSk3OgZSFl3/WNynPT+XZUzmIEzZrKx7mb5xONYF0E+7m4sjq78rXTuLcSJxxmti7QNd/9+0im70ROPg7+tjK5qV070Ba1p8BYO8SxIJ4rls4IKstlDnngcbP8hXSOJxxo9+oxLpzR/cvaK8/mNh5Uzu2TVitroSeMggdOkMCUcqKeFWRrMvrjl6e4O3nedYa77XcePX5SD4pla9iWXPDvR6JYulGOaZGOp45hDqkkIvK2wyjnlCcAxyp/2ffzvzskFJu7RXF3d/havXxSH/N7m428q4eWGLLHRcZ5OinwnytkjgctJ1LkvjV51MZt6WyzSp9Yki5cupWcjJd0fTO4uzpCpaXqNVwYtdLTVKydj1ddF2oavN7f0KtdA9rVwibXyub5xlEmccJ5vlwvjhXgWSHd3Nx3vpKNwOeqnuWQminbiOTPWiUafuq21oerYtYINCXKArJrYeMJD16HPUZ7bMM3zATATSGkw+3QbysrEWv3ymJhHakVTYbIc1KRsKx5qSEtlWbNR/72L2362nRzkNPqyJj1f8IiRzc3UP2wbzN2RvkyuPYVV23+sd5rXZ5KHZB7wxSXRsG7zy03GS9ay/Hyull+xrfA+JRyXY61g6tL0GSybmrjt9KrqXPoelSrdBkvh+aKYmCol986e+Oznkl3b9Zm5bOb6zJbFR3dskE7jJT15ZNF+fczGhgnZIo7dUzFke5isY4aR61ldtpmGVdeFbMNXjT07NsrbMMdl+FVZ8Htp2g07jnxatU7a7Jkl55nVNDxOiGchLufFCvHAw6S7zFTOu6osXamtQmt65ohYvc5oZtmMEn5cJ0mmHf0uJt2wnC7HsQcrGGsaWTWzMTHnjVWV26d6PgBm6C4yUyP/dHV1rV0rneoGmNZN7S3XReFTRvkIVxBRECYHpzQkCP+lmfgQMs+gb8z4HEXln1W15oweSaX6UTPr4VaQ1vPLWk2Y7x6F2irq6zLVNiT3iXdrtUGzQzXqLUzV7jhSJ5pJa+c9lNZ036v70sa/E6e+G8A0cKCeFmZpcHtFTcpDEtXglO7VTniIrzk/cafd0ycIgt974nB9v2l1IJ8RpP4cOH5K6xn+1RChtor6uky1Dcl90+UzQr2FqdodR+pk3NoN9PId9vpjhqzvTLqyRH03ALhZSGkQIeJyj7yaLrb9mOMsLxzvN9T9qlh59wbuFP/7vPd9TU5btWH6bAowO3DiEWYMewvAHYGX3rQwSwMAgAiBlAYAABECKQ0AACIEUhoAAEQIpDQAAIgQSGkAABAhkNIAACBCIKUBAECEQEoDAIAIgZQGAAARAl+IBTNG9hZaAoDbCwfqqSGlwYxhbwG4I/DSmxZOPAIAQIRASgMAgAiBlAYAABECKQ0AACIEUhoAAEQIpDQAAIgQSGkAABAhkNIAACBCIKUBAECEQEoDAIAIgZQGAAARYmYpzd/D85cEugAAhOj3dvbeklfFDbUsXvXO8ot0oJd/zy/SBUq4xHuvTojBF5PQ2+mduH/cOWGntAFPg8WYWVzCnuqlEYCI4z9dU3PaTxfCNMBbzc6Zviq8jaz9PVoO6YZaFs5ZZ/lFetnJvsJPSJK9p1jrOfx1C0Sv02zlB+jCHRdmSvM7flzP/P3J488n0wDAjREFYuKfdKpBYkg1qgjxGPIQtcdItYdoOZgUD64+5POpVZuB63KT1+kSNSkoDvLChDpBJo5qlPpahFhlKvQGGRuPeh21FQlBqjrFGIKFMx64earbWX5KaTkYqRwUDq4llSfscqp7+JwRZkrTZb18pPhb2gV0EWAqngMxnGN0rnPVwVmUBdHbyBk3cZyFS0vl7D3Ki0YK6lPzOEuecX0g6LHF1La05htzuNoOlTmT73QNm2jMs3DcJj170DP66vM5d+oTMziuyJx/0GG3xNiUn3Xrc9WY9WlFHJehZ3e5fHLM7+C4ow5bIZtvyUv7mr78lBQmM6eSOre7roTNtXvlajMkr8s308gKmh+hbRLSaDeapeBGtkZaHb9rF7v7Neb4j1gynomr1+csX58ojfapfNu5v9AgobYWpG3SlF5a5TS9ucbVR6PUkNdukTeIxaxfX+5U7pWejoaWH7OkKfsFsqzegthlU7awObvc+cEwjaqSBpZofFppweYhhz+Rr03kHFfp/UxPQ1quXZ42qvU1cTxwc6TtaXcczGc5Lm/T1/Q7neN2FfLqK0pLXF/ecknthaY89kC+2cJlriM7sMdVLZfXJ+Y3euUHqO/hc8uIzOPxKIWp9bcVRe930wX4opp2b3Hvjy5q66cLH7UVFcsLHzSbcxovKkFv8+5j3cMjI8P83m+Xtl35XA762p417D1LoiNua/SaZ9uuyNFJhi+2/XD3mz5l4WJjjrn5A6nUfTgjY79bevTIyCC/d2N0tFUa5pXmpzOs5wbl8LB7f0becalZaU9+wur+RA73NuatsXbLRRIfG3mYyApGW6VXRf9Z6w/raZuftFdG75bWZfjs7ujKdiXY317/k3Zlrcgmkoc3QXf9ExlWD12Js/uklZBfb+prceV43sZ9Z2n03N6NTzeTaOBF2s9bK1+hG2TYVRm9R9600mgDXUgtkI1GW/BYM+QWRj5urzQ826Zs4c+vNBdHRyvPYJDRp3j44muVu/9NWaeRi01m8zGp3P3KxsBm7D68MTBalb7GjwemNv2BOnh7fn6x8ek11nel4rhdhWz8J6zSy2/CC016bF5jr1zubTRHb1QeO9L/5vPKzqy6h0uNFLV9JAfnAFzxCLfL4qXxf3S7e/zSKYtVOdW5CRpGdHfY0jebFn0qSBYaHk+xeXqU2smPPhSnlHynGxoO0ZvrMsNo4rNerE6PJX8yCoJfEBneL53H9/KvLSl8MkkjP0Sr31aQIpcu846oLab7GbkDMT5l02BHF50YmQxJ98qFFauT/d2XArMKNRPHoEpnKH2xWGpzSBAGyMB80sA0C5es6naf90lncnSm4h+Y6FqputztWlKYtZauhGFrgUEuhVgLH39SLNhq0MpVNN+qeOuXOcGN6/Sle56RNgjZTtcGRabPP/reV6qBdkFaYLZsiKftrjBsGnJ1XSV/ivP2rMIssoWJqLjs3GK5pEoT/+Se6s2kW/nJGGL4fmnrJqRs6TvxO/lvePK8xGankArqfckC44FZMbo9o+JXJ/m7/yd5RsbvKmu3W+IbXX+SF4JeaLLk1Svkf1esNjCbDA/IZd2SWGVnVt3D5xikNLhdtKaKJkNPXZFxuT5zp00+7yT4+xhnnXQqUr6V2C8btFFK7TGL7ktIeJDeYqUXpehtrcpfr88s5Hbuf7P7Y6WWKJJcOPbYBQuUl++An3+nqYa2z3Evue5ZptwxM5PGoMrHHygxrjeyHFdz1H2NBhOKf1F2z6nyzHWJxsKqlvemvKSCjDaKGTu9r6ErEWIt/P4z2gVT5II+3lZi1Key+ZaapvOjwxmHtNDdtGu0WUut6544sv2FAV/QlmQ0X1lIS2rEnpaqPL0+I5+rsL75/iCNrkov+C8nT3J/D9+WkG1aRkLqfcFtMWFX0S6J9fd9dANX96ju4XMLUhrcYuJngZeO9oGcPfUnOz/s+EXaYG1Rg5fR6mKZrKrW1uax23blD8Mg2hUGg57e4heTo6T9+ZMrqv+982Rz65EXLY/ep9TS6VKEz0bfVWOYa9c+kP9drDMkle0Lar/1n006+Z4ZmTgGNcLpw+zH2SfPdpBe9lVuGbuSKtZU+nJrx9tvn3x+hWtTrWuKIwkZrfDZZ3SBZLJr9L0t9bWYsMoTCK5DbH/myc52Un9f9VbVC7tIC8llLwc121xN2tUujmOGhgMNCx/305IKr/37jhVVnZ2/bm2t32MxKjM7Is6QyTjP+bxn2pLTlMmBel9wW0zYVYT+Pl3s3874b7uQe/hcgpQGsy9uebq7g/ddZ5jrftfx4xfloHimln1JOZ5rdEuVP/w1ycZSxzGHVJMQeFthlXPKE4BjlD/w+/jfnZMLTNyjubq6/S1evygO+b3Nx99UwssNWWKj4zxNI74T5eyRwOUk6tyXbupNb+VPYeE83y4XmEstXFlLr7yC2iVLF8kxRfcHkzoio7276XinMlrB5ainV6morwVJG5qmYzRFCp21aXktE1uMosPxnKHDGY+0IDae8NB2+xzluQ2kXc1DptLX7K8r6fR67+tH7XIptLvl/1738R1uuSSJS8nWnKyqPWZKT1EOnep9wW0h7yqv0U9iiF32+l6LadLfjmGauIfPMUhpMPt0G8rKxFr98piYR2pFU6Hy15wmZVvxUENaKsuajfrvXdz2s+0JJKgva9LzBY8Y2dxM/cO2wdwd6dJJqimt2v5jvdO8PpM8JPOALy6JhnWbX24yXrKW5edztfyKbYV09haXY61g6tL0GSybmrjt9KrqXPp+myrdBkvh+aKYmKqp5lIhaDfsOPJp1TppBTNLzjOrleiK7LI1roJHpNHqt7RoG3eY5CN80pNHFu3Xx2wkU9VgcTkvVogHHiajzUzlvKvK0gNxtbWIYw9W32tPI5vCbEw7IFa8GPxemtb0zBGxep3RzLIZJfzocCYgLVQwVqWFxJw3VlVul9rVGMp+ZXDlJJLHGjceXppVSmurSNj+E4PzKX1mLpuZXeeLDfrDfZkpe5mre7MheXRzq/cFt4W0q0Q1KBvf+NPBsp8Xk1ffTKnv4XPMXSMjI+Sfrq6utWvXKiGAqd3U3nJdFD5ltNoJBzNRECYHpzQkCP+lmfgQMhmib8/4HEXln1W15ixXFuX6UTPr4caQNRHv1mqVC0/GzGwFQ9ZWXQv1TaqQhqP5slYz9btWIVoQyWPDGbP0cFJzQlXBudPs+/u3ilfRZWqq0cI0bvZAPRsbP8QePldglga3V9SkQ59ENTile7UTHuJrzk/caff0CYLg9544XN9vWh3IZwSpf1uOomRN1F7tM1vBkLVV10J9kyqk4UyTz4gQLYSVzwjp4eOqSl/K5aiv7y9In5DPiKlGC7fYbGx86cmeq/mMQEqDCBGXe+TVdLHtxxxneeF4v6HuVzdyagVmg+jz8N7/vfqln4/7UAHAbYATjzBj2FsA7gi89KaFWRoAAEQIpDQAAIgQSGkAABAhkNIAACBCIKUBAECEQEoDAIAIgZQGAAARAikNAAAiBFIaAABECHx7CMwY2VtoCQBuLxyop4aUBjOGvQXgjsBLb1o48QgAABECKQ0AACIEUhoAAEQIpDQAAIgQSGkAABAhkNIAACBCIKUBAECEQEoDAIAIgZQGAAARAikNAAAiBFIaAABECKQ0gNtI9Hs7ewW6cHvNZtdCb6fXL9IFgLkDKQ1gjP90Tc1pP124FQZ4q9nZSxdur/C79rtqdrmm3Aq9TrOVH6ALAHMHUhrcXqJATPz7XjVIDKlGFSEeQx6i9hip9hAtB5PiwdWHfD61ajdB7uE6XZjo+pT3BguxuuM2UYg6E9dxkomPuy74rs5sOie1MGm7hRoywK2DlAazz3MghnOM/pV/1cFZlAXR28gZN3GchUtL5ew9ysFOCupT8zhLnnF9IOixxdS2tOYbc7jaDpXZgu90DZtozLNw3CY9e9AzetT0OXfqEzM4rsicf9Bht8TYlJ9163PVmPVpRRyXoWd3uXxyzO/guKMOWyGbb8lL+5q+/JQU9jayJXVud10Jm2v3ytXCQlYwxuahC9K6K/2SQu0JZ7k5nyvKXPdN1tY14eAur/g308jWMD9CB+BrzU88EGhJcL0QU9VBHhXOJlKtQ9bdWb4+UVr3p/Jt5/5Cg8GGvHaLUapQlGa02L3kce/Z2TKr+5y1JJe1v8eInbWJ9OmTeI+ksUfHz/TUNq9KswC3x4jM4/EoBYBpTbu3uPdHF7X104WP2oqK5YUPms05jReVoLd597Hu4ZGRYX7vt0vbrnwuB31tzxr2niXREbc1es2zbVfk6CTDF9t+uPtNn7JwsTHH3PyBVOo+nJGx3y09emRkkN+7MTraKg3zSvPTGdZzg3J42L0/I++41Gx/W1H0E1b3J3K4tzFvjbVbLpL42MjDRFYw2uqmC9K6y/1KhTVk1eTgoGv3mtI3pXYDlfvPWn9YTwfwSXtl9G5pxT9+8/k1o00NtleukbZGOJsoRJ3u+icyrB66Sc7ukzZJYJyKK8fM5ib6nHQf3938rlw58JRJuusfK2r7KFDOk7c26V0Jqm9e9WbhpuFAPS3M0uB2Wbw0/o9ud49fOs+2Kqc6N0HDiO4OW/pm06JPpVNUwkLD4yk2T49SO/nRh+KUku90Q8MhenNdZhhNfNaL1emxZGYiCH5BZHi/9KaOl39tSeGTSRr5IVr9toIUuXSZd0RtMd3PyB2I8SmbBju66JzDZEi6Vy6sWJ3s7750VS6HMHEM4Uk2GpR10N6/OvlEL53BKHSG0heLpQEMCcIAWQuftBaLDSZTY3unNKkROp1vFKQaNOFsohB1Lne7lhRmraWbxLC1wCCXgi3SxV/0uJUrPRLY6pwHlMrBEgxZfa+fkcfew7fdl/3ocjmsCLF5w2gW4JZASoPbRWuqaDL01BUZl+szd9pcfSQk+PsYZ510KlK+ldgvG7RRSu0xi+5LSHiQ3mK1JCB6W6vy1+szC7md+9/s/lipJYrkID722AULpJoMM+Dn32mqoe1z3Euue5Ypd8zMpDHcPB9/oMS43shyXM1R9zUa1Joys1vOuEVG4E93WzYkhbeJQtQh6x7FLKB1yJ8CdJME026o+KW+x/pdY8z6zPIDLp/au3oJ6QXiKZ7kNO+ZttVZJh0Ny0Js3nCaBbgllMka5rMQvpmdePyg2Tx2Fksx3P/b3Rsfq+8eGT67J3rvORoNEjivpcZbvzGn8aJykm2kv6149ATj6BlIWXf9Y3Kc9P5dlTOY0onH/WMnCwPd3fSJR2mNAicex519VeqMFgZ/Wxld1a6csBu3vsNn9xr2nvW9+by0feTl6TdRiDrSmd7msXUn223Siccxw/3tezZuPCz3Oe7EI3Gl+em85g/IJq0cHfFo7yE275jgZuGm4UA9LczSYPbFLU93d/DS3+bX/a7jxy/KQfFMLfuSS76QTqNbulCOaZKNpY5jDvpXvMDbCqucU54AHKPMVPr4352TC0zco7m6uv0tXr8oDvm9zcffVMLLDVlio+M8vX7Pd6KcPRK4nESd+9K4E4TTWxa7WtfOy10If3q95TUlGhblfJxwnm+XCxKNIXVrS8MLLdf+Pj1BXg5jE4WoQ9b97qbjncq6Cy5H/aRrXkT+Jba2gz4nS5TnRHHuYtDUKu7RJzWO6tomY7phwkRPffOGbhbgFkNKg9mn21BWJtbql8fEPFIrmgqT5aAmZVvxUENaKsuajfrvXdz2s+3kkK3RlzXp+YJHjGxupv5h22DujvRlcu0prNr+Y73TvD6TPCTzgC8uiYZ1m19uMl6yluXnc7X8im2F9ynhuBxrBVOXps9g2dTEbadXVefS99tU6TZYCs8XxcRUKbk3PElZtcl88cqYmETu9NezC2h0atoNO458WrVO2hqZJeeZ1TQsSdpg6e9g0kffSgxnE4WoE5fzYoV44GGy7pmpnHdVWbpSe4zGwBaLh9KMZrJx9M+9v+2lXDmNLku3fNdTtDym6jTdCrqU7LiO7qyU5EmbTnXzhmgW4Na7i8zUyD9dXV1r165VQgBTu6m95boofMpotROOjaIgTA5OaUgQ/ksz8SFkYkHfZ/I5iso/q2rNCVzLQOpHzayH24Cstni3VqtcpRLQ05D2L3Gvvpw+fkYUziZSrzP9I6fdOAPO8hxfwW+KQ6Ym1Rbm5Daf13CgnhZmaXB7RU3KQxLV4JTu1U54iK85P3Gn3dMnCILfe+Jwfb9pdfC1eaT+3Du2ktUen8+E3k6X/XCTIdM06VKOcDaRep3pHznVxhH97/GOw/XXCpQToSGotjAntzlENqQ0iBBxuUdeTRfbfsxxlheO9xvqfhV6SjFn+bv5d3s17MnqlDmTCkSfm/f+Zc1LB3PpiVCAuQwnHmHGsLcA3BF46U0LszQAAIgQSGkAABAhkNIAACBCIKUBAECEQEoDAIAIgZQGAAARAikNAAAiBFIaAABECKQ0AACIEEhpAAAQIca+EEtZBgAAmKfwHY8wY9hbAO4IvPSmhROPAAAQIZDSAAAgQiClAQBAhEBKAwCACIGUBgAAEQIpDQAAIgRSGgAARAikNAAAiBBIaQAAECGQ0gAAIEIgpUEEGfLad7JsbknLJcbfUVN11CvSO2aF6H+P7x2gC+ES/d7OXoEuzAa1BsWrXv7SbHYCME8hpUHk8DbmuR6sPlL/cs4KGgmTt5G1v0fLoQn8K6zzMl0I1wBvNTt76cJsUGtQOGdlT81mJwDzFFIa3F6iQEycPKkGiSHVaEjidX9yQoJWqyFlnbF6T36CVKJIH2NtSR0O0TIhDvLCdVpWQYahNo4JjVCh1kVxXbpbnNxX8JqGaEF+JC1PI8SAVYReNZVBAsx5SGkw+zwHYjiHny5cdXAWZUH0NnLGTRxn4dJSOXuPciSVgvrUPM6SZ1wfCHpsMbUtrfnGHK62Y7Sdafhdu9jdrzHHf8SyuXYvWXZwMQc80h0OjjvUUmNO44qkONPnqjEbzRaOyzGyu1z+4AdKixP4nDv1iRkcV2TOP8j/hQaVRvRpRRyXoSeP8tGo6roEyPd+M42svvkRffkp5UET1jREC33O8vWJUndP5dvOjY1CxZDXbpEHbDHr15c7+0jI15KXaAv8eJTgqoqpckmZ2EdWXC+tWpreXOOSaipPVkPLj1nSl/2CHAGYX0ZkHo9HKQBMa9q9xb0/uqitny581FZULC980GzOabyoBL3Nu491D4+MDPN7v13aduVzOehre9aw9yyJjrit0WuebbsiR2eA9GsdHVp/W1H0fjctPGF1f6KEh8/uia50SX2Qe9pf2dvuk0rBDwzWfTgjY79bqT3I790YrVS70vx0hvXcoBwedu/PyDsuDZWsy5ri5sC6FK2R14WsfrRVHsdZ6w/r6TA+aa+M3j15TUNsje76JzKsHjqKs/ukUUgNBhlbWd5a+Qod8LCrMnqP1MCg8/k18r3E4G8r1/xECl45nkdWja6Dx5rxdLM0CGm0gb5gzsGBelqYpcHtsnhp/B/d7h6/dEZrVU51boKGEd0dtvTNpkWfSqfahIWGx1Nsnh6ldvKjD8UppWC+0w0Nh+jNFf7bWiZD0r1KSbNwSUL3Od4nnW3TmZ6pMMUqcVW+7o4lhU8mKWcvtfptBSly6TLviNpiup+RBy3Gp2wa7Ojyy+uSnZsdFyXXic068naFIei8J6MzlL5YLA1jSBAGSPc+P73SJLCmIbbG5W7XksKstXQUhq0FBrmkSqcv3fOMNGBREK4NikyfXyCP+Zbp0aZ2XpryCfxbbxQ+Rsbl408yWzbE03VYYdg05Oq6qrSRaqB9Acw/SGlwu2hNFU2Gnroi43J95k6bfKZL8PcxzjrpVKR8K7FfNmiVlBDCovsSEh6kt1gtDc5IQuHhsnuc5VvWJabmV7V6p7xM0O8/wzBj41mwQOlxwM+/01RDx8xxL7nuWUbukNZl4VemSAY+/kCJcb2R5biao+5rNBgsxNYg3UUxC2gdkpTpKNT18bYSoz6VzbfUNJ0f7WSxKWtrC+8RmQHe5bWYpJ+QJKvW3bQr0Fet6564qbc8wLyAlAa3mPhZIG1oH8jZU3+y88OOX6QN1hY1eBmtLpbJqmptbR67bX+AVlalXWEw6OktfjENzkxUnOkf97W2v/32v1as6EirPT1FUtPpUoTPxt4Ru3btA/nfxTpDUtm+oDG3/rNJJ6/L4CcT3j8bI5w+zH6cffJsB6m/r3JLMg0HC7E1SHfCZ5/ROiTDXVPe9lIjuA6x/ZknO9vJY/dVbw10okk25jjOuH3nXd1bDQlShKxactnLwX1Vk3UAmO+Q0mD2xS1Pd3fwvusMc93vOn78ohwUz9SyL7nkBKLRLV0ox8ihttRxzCHVJATeVljlpKe/bpHeFov0qTXJ4qVL6dlISfcHoxd5jIkzZGqaXuOVpCd0tNUrJ0WXG7LERsd5mgt9J8rZI2QGJK3L680tvco1kH0tXGKtfK5vHGUSJ5zn2+XCeCG2Bunu7qbjnXQULke9dJHLFKJoJ54zY51o9KnbWhuqjl0r2CBnNGnVxMYTHroOfY7y3AayDgDzHVIazD7dhrIysVa/PCbmkVrRVKhMFjQp24qHGtJSWdZs1H/v4rafbScHV42+rEnPFzxiZHMz9Q/bBnN3pC+Ta98q8dnPJbu26zNz2cz1mS2Lj+7YIJ3GS3ryyKL9+piNZOI4Thy7p2LI9vD6TDbDyPWsLttMwznWCqYuTZ/BsqmJ206vqs6V3r4i6/KqsWfHRnldclyGX5UFv5em3bDjyKdV66TVzyw5z6ym4XFCbI24nBcrxAMPk+4yUznvqrJ0pbYKremZI2L1OqOZZTNK+HGdJJl29LuYdMNyuhzHHqxgrGlk1czGxJw3VlVup+8ZAsxnd42MjJB/urq61q6VTrEDTOum9pbrovApo3x0LIgoCJODt5DU35e1mjDfPQo1uiFBiJocn2pdyH3i3Vpt0OxQjXoLU7U7jtSJZtLaeQ+lNd336r608e/EqT8dMEfhQD0tzNLg9orSqB1AVYO3kNRf+FdDhBrdvarxqdaF3DddPiPUW5iq3XGkTsat3UAv32GvP2bI+s6kK0vUnw6A+QopDSDC+d/nve9rctqqDdNnU4D5DSkNIMLp9NuLn8kx4IJG+AJASgMAgAiBlAYAABECKQ0AACIEUhoAAEQIpDQAAIgQSGkAABAhkNIAACBCIKUBAECEQEoDAIAIgZQGAAARAt/EDzNG9hZaAoDbCwfqqSGlwYxhbwG4I/DSmxZOPAIAQIRASgMAgAiBlAYAABECKQ0AACIEUhoAAEQIpDQAAIgQSGkAABAhkNIAACBCIKUBAECEQEoDAIAIMZOUJvo9DnvDoRZnj59GAOYO0e/t7BXowqy6oZbFq17+0qwOZ6CXf88v0gVKuMR7r06IAdxOQm+nd+J+eeeEndIGXFWpRcf/99KE+xd0v5TJNnppHGCOGOCtZmcvXQiXt5G1v0fLId1Qy8I5K3tqpg+a0mUn+wo/IUn2nmKt525JHgcIT6/TbOUH6MIdF25K873V0LvjpX2F6QZjVsXBPfHVbTz+NIQbIArExH1HNUgMqUbDc11qVLxOl6hJQXGQFybUCSLXpuVgUnyIlseQ0U4x3BD3kqbGxqNeR21FQpCqhrnJwhkPzF+qz6+8K9FyMFI5KBxcSypP2NVVX1lzRrgpLS7zyBE2ni7cu1BLSwAqPAdiOMfo2emrDs6iLIjeRs64ieMsXFoqZ+9RXjRSUJ+ax1nyjOsDQY8tpralNd+Yw9V23MBZbrnNb6aRjsyP6MtP+ZSo73QNu9EsBTeyNVKzftcudvdrzPEfsewu18Ru+pzl6xPTijjuqXzbub/QINHnqjHrpXiGnjyKNs34SFP6DI4rStOba1x9NEoNee0WfSK512LWry93KvdKm6Wh5ccsacp+gSyrtyB22dhEYx4Zc3a584NhGlUlDSzR+LTSgs1DDkMiX5vIOa7S+5mehrRcuzxtVOtr4nhgfpKeR7vjYD7LcXmbvqbf6Ry3i5JXX1Fa4vrylktqLzTlsQfyzRYucx154Xhc1XJ5fWJ+o1d+gPora24ZkXk8HqUQjittz377J2eH6RJ84Uy7t7j3Rxe19dOFj9qKiuWFD5rNOY0XlaC3efexbrILDfN7v13aduVzOehre9awV96x3NboNc+2XZGjYSMdRVvdpNB/1vrDevcncvCT9sro3VKbw2d3R1e2K8H+9vqftCutk6FaVdamu/6JDKtH2ccHz+7bGK20PHKl+ekM67lBOT7s3p+Rd1xq5srxvI37ztLoub0bn24m0X4ynP3ycHhr5Stupa1hV2X0HnkVpdEGupBayNjvpi14rBlyCyMft1canm3zydHPrzQXR0crWzLI6KYevvha5e5/o1vsYpPZfEwqd7+yMfBEdB/eGBitSl/jxwNz0/QH6uDn8fOLjU+vsb4rFcftouRJf8IqvfwmvNCkx+Y19srl3kZz9EblsSP9bz6vvIhUX1lSI0VtH8nBOWDGVzySPxuf+5ev1z1n0NAAQHgWL43/o9vd45dOWazKqc5N0DCiu8OWvtm06FNBstDweIrN06PUTn70oTilFMx3uqHhEL25LtPgRDpD6YvFSffKp1MGBJHx+QcYRrNwyapu93mfdEZFZyr+gUml9YDL3a4lhVlrlX1ca9haYJBLzGXeEbXFdD8jD1eMT9k02NHlZ3z8SbFgq0E5daH5VsVbv8wJblynL93zTBJpSxSEa4Mi0+cffe8r1UC7IC0wWzbE03ZXGDYNubqukj+JeXtWYVasXCUqLju3WC6p0sQ/uad6M+mWdOIXhhi+X5p2JqRs6TvxO/lvaS//Wmx2Cqmg3pcsMB6Y10afx6j41Un+7v9J9oTxu+ja7Zb4Rtef5IWJL7Tk1Svkf1esNjCbDA/IZd2SWOVFpPrKmmNmltLEngau9GLhz0ultQKYEa2posnQU1dkXK7P3GmTz3cJ/j7GWSedipRvJfbLBm2UUlvdovsSEh6kt9iQp799/IES43ojy3E1R93XaDCh+Bdl95wqz1yXaCysanlvyksqBvx8FLOALpBjwALaFYm/01RDR8txL7nuWUbu8fvPaBdMkQv6eFuJUZ/K5ltqms6PDmcc0kJ3067Adqh13RNHtoMw4GOCtobmKwtpSY3Y01KVp9dn5HMV1jffH6TRVekF/+XkSe7v4dsSsk3LSEi9L4hoE3ZR7ZJYf99HN3BVkeora26ZSUrrc+ws7s5uOUj/bAQIh/hZ4KWjfSBnT/3Jzg87fpE2WFvU4GW0ulgmq6q1tXnstl35wzAE7QqDQU9v8YtpcALh9GH24+yTZztIa/sqtyTTMMPEmkpfbu14++2Tz69wbap1TfGKXqwzCJ99RhdIJrtG39si8aSyfUGjbf1nk47R6VKEz5T3JlQIrkNsf+bJznZSf1/11rHhBCEtJJe9HNRsczVpV7s4jhkaDjQsfNxPSyq89u87VlR1dv66tbV+j8UYeInGGTIZ5zmf90xbcpryR7p6XxDRJuyiQn+fLvZvQ/5JGErIV9ZcEnZKG+Brd76+uuFl5DOYVtzydHcH77vOMNf9ruPHL8pB8Uwt+5KSRzS6pcqEQ5NsLHUcc0g1CYG3FVY5A5cz3BzlT1LhPN8uF5hLLVxZS6/ckXbJ0kVyTNH9waR3uZcbsu5uOt6pJD3B5ainn1khcbHRcZ4mQ9+JcvaIR5TShqbpGE2RQmdtWl7LxBaj6HA8Z+hwxiMtiI0nPLTdPkd5bgNpV/OQqfQ1++tKOr3e+/pRu1wK7W75v9d9fIdbLkniUrI1J6tqj5nSU5RDmHpfENHkXfQ1+gkQscte32sxTfm34xQmvrLmmHBTmucoa+t01Wz8WswoWxe9C2AC3YayMrFWvzwm5pFa0VSo/DWnSdlWPNSQlsqyZqP+exe3/Wx7Agnqy5r0fMEjRjY3U/+wbTB3R7p0cuymaDfsOPJp1Tqpo8yS88xqJboiu2yNq+CRTKmjLS3axh0m+Qif9OSRRfv1MRvJlDFYXM6LFeKBh/UZbGYq511Vlh6IWyuYujQSZ1MTt51eVZ0rvUkWxx6svteetj6TrFraAbHixeD30rSmZ46I1euMZpbNKOFHhzMBaaGCsSotJOa8sapyu9SuxlD2K4MrJ5E81rjx8NKsUlpbRcL2nxicT+kzc9nM7DpfbNAf0MtM2ctc3ZsNycqhKFRfENGkXTSqQXnSjT8dLPt5MXn1zZT6K2uOuWtkZIT809XVtXbtWiUEMLWb2luui8KnjFY74SAqCsLk4E0hLYp3a7UT3/SdWUchaw8JQtSkO9RXTSENR/NlrWbqd61CtCCSx4YzZunhpOaEqoJzp9n3928Vr6LL1FSjhTnqZg/Us/Gkh3hlzRUzvuIR4KZETTrkSlSDN4W0qPaqm1lHIWvfq3aH+qoppOFMk8+IEC2Elc8I6eHjqkpfyuWor+8vSJ+Qz4ipRgsRajaedGknm8OXByKlAUQq0efhvf979Us/H/ehAoAIhpQGEKk08ZuLiwvT42d8aRvAfIWUBgAAEQIpDQAAIgRSGgAARAikNAAAiBBIaQAAECGQ0gAAIEIgpQEAQIRASgMAgAiBlAYAABECKQ0AACIEvokfZozsLbQEALcXDtRTQ0qDGcPeAnBH4KU3LZx4BACACIGUBgAAEQIpDQAAIgRSGgAARAikNAAAiBBIaQAAECGQ0gAAIEIgpQEAQIRASgMAgAiBlAYAABECKQ2+kES/t7NXoAu312x2LfR2ev0iXQAApDT4QhrgrWZnL124vcLv2u+q2eXy0wVVvU6zlR+gCwCAlAa3lygQE+cVqkFiSDV6Y6Q+xOt0YaLrU94bLJyhhqgj90HLqiY+7rrguzqz6ZzUwhAtB4QaMkDkQUqD2ec5EMM5RmcXVx2cRVkQvY2ccRPHWbi0VM7eoxxkpaA+NY+z5BnXB4IeW0xtS2u+MYer7ZhylhKMdBRj89AFaQw2+TdwSKH2hLPcnM8VZa77JmvrmnBwlwfwzTQyKvMj+vJTPhLyteYnHgi0JLheiKnqII8KZ6iqdRimz1m+PjGtiOOeyred+wsNBhvy2i1GqUJRmtFi95LHvWdny6zuc9aSXNb+HiN21ibSzSjxHkljj46f6fW5asx6qYUMPbvLJa0GMblZgMg2IvN4PEoBYFrT7i3u/dFFbf104aO2omJ54YNmc07jRSXobd59rHt4ZGSY3/vt0rYrn8tBX9uzhr1nSXTEbY1e82zbFTkaNtJRtNVNF6QxWOVhksIa0oUcHHTtXlP6pjSYQOX+s9Yf1rs/ke/+pL0yerc0gI/ffH7NaFOD7ZVrpFGFM9QQdbrrn8iweqQSae7svo3RQeNUXDlmNjfRbdN9fHfzu3LlwKaTdNc/VtT2UaCc1/wBKZDeleCV5qczrOcG5XuH3fsz8o5LQ1JvFuYtHKinhVka3C6Ll8b/0e3u8Uvn91blVOcmaBjR3WFL32xa9Kl0akxYaHg8xebpUWonP/pQnFIK5jvd0HCI3lyXaXBayUaD0pb2/tXJJ3rpDEahM5S+WJx0r3zmcEAQGZ9/gAzVYDI1tndKkxqh0/lGQapBE85QQ9S53O1aUpi1ViPX0Rq2FhjkUrBFuviLHrdypUcCW53zgFI5WIIhq+/1M/LYe/i2+7IfXS6HFZd5R9QW0/2M3LEYn7JpsKOLTOnCaBYgoiClwe2iNVU0GXrqiozL9Zk7ba4+EhL8fYyzTjoVKd9K7JcN2iiltrpF9yUkPEhvsVoavDk+/kCJcb2R5biao+5rNKg1ZWa3nHGLjMCf7rZsSApvqCHqDPj5KGYBrcMwmgWTB67dUPFLfY/1u8aY9ZnlB1w+tXf1EtILxFM8yWneM22rs0w6GpaRLt5pqqH9ctxLrnuWSZ2E0yxARFEma5jPQvhmduLxg2bz2NkzxXD/b3dvfKy+e2T47J7ovedoNEjgfNpMjDvxKLUcOPE47iyoUme0MPjbyuiqduWE3bh+h8/uNew963vzeWmc8vL0Qw1RRzrj2jx2FtVbv3HSiccxw/3tezZuPCz3Oe7EI3Gl+em85g+66x+rHB3xaO+ki+9OeaI2uFmYt3CgnhZmaTD74panuzt4aU5w3e86fvyiHBTP1LIvueQL+DS6pQvlmCbZWOo45qCzB4G3FVY5r8rlG7AsdrWunT8v9SD86fWW15RoWJTzccJ5vl0uSDSG1K0tDS+0XPv79AR5OYyhhqiz3JB1d9PxTuXaRcHlqPfKpSAi/xJb20G3zRJl2yjOXQyaWsU9+qTGUV3bZEw3TJjokS7ERoe87oTvRDl7xCNO0SxAhEJKg9mn21BWJtbql8fEPFIrmgqT5aAmZVvxUENaKsuajfrvXdz2s+0kVWj0ZU16vuARI5ubqX/YNpi7I32ZXPtGJGXVJvPFK2NiErnTX88uoNGpaTfsOPJp1TppVJkl55nVNCxJ2mDp72DSR9/SC2eoIerE5bxYIR54WJ/BZqZy3lVl6UrtMRoDWyweSjOaWTZV/9z7217KldPosnTLdz1Fy2OqTtNcpUvJjuvozkpJnvSeWFyOtYKpSyNdsKmJ206vqs5N0oRqFiBy3UVmauSfrq6utWvXKiGAqd3U3nJdFD5ltNoJx2RRECYHbx/SvXi3VnsvXaR6GtL+Je7Vl9PHz4jCGap6nekfOSQIUVPWGHCW5/gKflMcMjWptjBtszBP4EA9LczS4PaK0qgdXFWDtw/pfnw+E3o7XfbDTYZM06RLOcIZqnqd6R957xQ1RP97vONw/bUC5URoCKotTNUsQERBSgOYxN/Nv9urYU9Wp8yZVCD63Lz3L2teOpir8tkGAFDgxCPMGPYWgDsCL71pYZYGAAARAikNAAAiBFIaAABECKQ0AACIEEhpAAAQIZDSAAAgQiClAQBAhEBKAwCACIGUBgAAEQIpDQAAIsTYF2IpywAAAPMUvuMRZgx7C8AdgZfetHDiEQAAIgRSGgAARAikNAAAiBBIaQAAECGQ0gAAIEIgpQEAQIRASgMAgAiBlAYAABECKQ0AACIEUhoAAEQIpDSYS0S/t7NXoAu3zJDXvpNlc0taLjH+jpqqo16R3jErRP97fO8AXQjXrK+4WoPiVS9/6ZZvXYA7CCkN7jD/6Zqa0366MMBbzc5eunCreBvzXA9WH6l/OWcFjYRp3FBDEvhXWOdluhCuWV9xtQaFc1b21K3eugB3ElIa3CqiQIQx/xny+YZoccyQ2mOlFtUaJJVnMs8Sr/uTExK0Wg0p64zVe/ITpBJF+hhrS+oweGyqQw1QHTMRcl1Cj/q6vKrX6dKY4DUN0YL8SFqeRqgBTxa6L5VBAtw5SGlwC/S5asyJxqc5rihNb7Z55DTgd3AxBzzy3YTHFmMjC95GtqTO7a4rYXPtXnpXP38wP7OQ47as0+90+mjQ59rF6jdJDSauL2+5pBxdSSO1La35xhyutmPayZPCT9rZ/Rpz/Ees0mNgVKTAHWqpMadxRfJIpFUwmi0cl2Nkd7lI62pDDfA5d+oTM8jwzPkH+b/QICEPW4qT7VDj6lOCoreR06fmcZY843rO3jMhU8j3fjONs3DmR/Tlp5QNMGFNQ7TQ5yxfn5hWxHFP5dvOBY1isiGv3SIP2GLWry93SgPzteQl2gK/MSW4qmKqXNITp9bXVQdnaWj5MUv6sl+QAgBzxYjM4/EoBYBpTbe3DF98rXL3v11RFi42mc3HpHJ/W1H0frcSHBlxW6OtygKJF7X1y8WRkY9IpQyrZ1heuNJWHL3791L5yvG8jfvODsrRYY814wlrtxQmjax5to12FD73/mjr6BoERiUVnrC6P1HCw2f3RFe6lGH0t7+yt90nl4KHGqT7cEbGfrdSe5DfuzGatk+GTeJjw366mYx1mN+7prj5yudy1NdWtGbvWfJIacXlDdJ/1vrDejqMT9oro3dL945fU9LCt0vbAi08a5BbGOmufyKw6QbP7pNGEdjcirGV5a2Vr9ABD7sqo/dIDQw6n18z+gQN/rZyzU+koHpf454muH1woJ4WZmkw6zTxT+6p3hwnn5fyC0MM3x/mFEqRalirnAiMW5ti8A0IZALBnxQLthq0clSzdrslvtH1J3mBSX70IdLRRL7TDQ2H6M0V/ttaJkPSvUpJs3BJQvc53iedbNOZnqkwxSpxVb7ujiWFTyYpg9bqtxWkyCVp2MyWDfGMdNJOEFcYNg25uq6K7g5bdm52XJRcJTbryNsVhqDznozOUPpisTSMIUEYIN37/PRKk8CaSi2kbzYt+lRud6Hh8RSbp4dhLne7lhRm0U2nNWwtMMglVTp96Z5npAGTZ+jaoMj0+clW1n7L9GhTOy9NwwT+rTcKHyPjCtGXJPA0AcwhSGkw+8Selqo8vT4jn6uwvvn+II3O3IIvK1nM7z+jXTB2/NQuifX3fTTVlXuL7ktIeJDeYpU2Ziih8HDZPc7yLesSU/OrWr1TXiZIhscwSoqSLFhAeyTx7qZdHGdRbrWue+K0UYK/j1n4lSmSgY8/UGJcb2Q5ruao+xoNBpNacNYFmi2xXzZoSe8Dfj6KWUDrkKQ8OgpVfbytxKhPZfMtNU3nRztZbMra2sJ7RGaAd3ktJumXJkP0BTBXIaXBrPPav+9YUdXZ+evW1vo9FqPaBEccnkmi0+lShM/G3nIS+vt0sX871RFbu8Jg0NNb/GIanJmoONM/7mttf/vtf61Y0ZFWe3qKpDZheNeufaAUSDy57OXW1ubArdqk0+pimcFPxmpPIJw+zH6cffJsB6m/r3JLMg0Hk1rIqgputnX7AyQh6QzCZ5/ROiTDXaPv3KkQXIfY/syTne3ksfuqtwY60SQbcxxn3L7zru6thgQpEqIvgLkKKQ1ujbvl/1738R1uucTo4lbrXLxHSg1C74mW15WozH1p9CoQdXGGTE3Ta7ySVcQue32vxXRrD6y9LRbpU2uSxUuX0rORErWhjhue0NFWT0/NkbjYeEJeY6LPUZ7b4BFJ2ih9vbmlV7lysq+FS6yVz/WNo0zihPN8u1wYT2rBcczhUy41FHhbYZXzKsMsN2Td3XS8k47C5aifdA3LeFG0E8+ZsU40+tRtrQ1Vx64VbJAzWqi+AOYqpDSYdQnbf2JwPqXPzGUzs+t8saOTgLVZLyfxRStjYhI55/3ZhTTK6DZYCs8XxcRUueixX0Uce7A6qiFtfSZrNhp/Olj282LliHvLxGc/l+zaLq/C+syWxUd3bJAmhaGGGsfuqRiyPUyGl2HkelaXbQ7ED1YwVmXYiTlvrKrcnqQhaaPsVWPPjo1GNjdTn+My/Kos+L007YYdRz6tWpfKsubMkvPMahoeh7TQpOcLHpFbeNg2mLsjfRkJx+W8WCEeeFifwWamct5VZelKbRVa0zNHxOp1RjPLZpTw4zpJMu3odzHphuV0OURfAHPUXSMjI+Sfrq6utWulc+cA0wprb7kuCp+KGuXDX7NFapOZ3SanJgoC82WtJsx3j6TaaqNTH3ao2hJyn3i3Vhs0O1Sj3sJU7Y4jdaKZtHbeQ2lN9726L23Ced2wW4VbCQfqaWGWBrdGFElns30IlNq8rUdVqb/wr4YINTr1YU+1LuS+6fIZod7CVO2OI3Uybu0GevkOe/0xQ9Z3Jr9PGXarAHcUUhoASPzv8973NTlt1YbpsynAHIWUBgASnX578TM5Bh1dBJiPkNIAACBCIKUBAECEQEoDAIAIgZQGAAARAikNAAAiBFIaAABECKQ0AACIEEhpAAAQIZDSAAAgQiClAQBAhMA38cOMkb2FlgDg9sKBempIaTBj2FsA7gi89KaFE48AABAhkNIAACBCIKUBAECEQEoDAIAIgZQGAAARAikNAAAiBFIaAABECKQ0AACIEEhpAAAQIZDSAAAgQiClAQBAhEBKg7lE9Hs7ewW6cGvcui5uqGXxqpe/NKvDGejl3/OLdIGa/V4A5iSkNLjD/Kdrak776cIAbzU7e+nCrXFDXXgbWft7tBzSDbUsnLOyp2Z1jS872Vf4Celr9nsBmJOQ0uBWEQViwmxBzZDPN0SLY4bUHiu1qNYgqRxGP+quy41ep0vUpKA4yAsT6gQJNS4pPnnVpGjo8aquuPygsfGotyCPIvQgxwnRi4pwxgMwZyClwS3Q56oxJxqf5riiNL3Z5pEP634HF3PAI99NeGwxNrJAZj8ldW53XQmba/fSu/r5g/mZhRy3ZZ1+p9NHgz7XLla/SWowcX15yyXlIEsaqW1pzTfmcLUdo/O8GRC9jZz+m2mchTM/oi8/Rbvyna5hN5ql4Ea2RmrWT7re/Rpz/Ecsu8s1sZs+Z/n6xLQijnsq33buLzRISFtAL8Uz9ORRo2sh95iax1nyjOs5e8/4VDHktVv0iRkcZzHr15c7++TgVQdnaWj5MUuasl8gy+otiF02NtGYR8acXe78YFgJqlPpxdeSl2gL/ASe4KqKqXJJT5m8zUlN6UmscamPB2COGZF5PB6lADCt6faW4YuvVe7+tyvKwsUms/mYVO5vK4re71aCIyNua7RVWSDxorZ+uTgy8hGplGH1DMsLV9qKo3f/XipfOZ63cd/ZQTk67LFmPGHtlsKkkTXPttGOwiV1IXfdf9b6w3r3J3Lwk/bK6N1nSZvDZ3dHV7Yrwf72+p+0K62790dbVVa6u/6JwGgHz+7bGE1X6krz0xnWc3S87v0ZecelZob5vWuKm698Lod9bUVr9pIeA5uln7dWvuJW2hp2VUbvkYYzfoNILXy7tC3QwrMGqYWRj9srDc+2+eTg51eai6OjiwMblJq6l0Hn82tGn5rB31au+YkUJNs8Y797bJs/3Sytw/jxwG2GA/W0MEuDWaeJf3JP9eY4+eyUXxhi+P4ZTaFSDWs1ciFubYrBNyCQ6QJ/UizYatDKUc3a7Zb4Rtef5AUm+dGHSEcT+U43NByiN9dlGpxIZyh9sTjpXvnc2oAgMj7/AGl94ZJV3e7zPulkm85U/AOTSusBl7tdSwqz6Gi1hq0FBrnEXOYdUVtM9zPS+UFBjE/ZNNjR5WdEd4ctOzc7LkquE5t15O0Kg/JQmU5fuueZJBIgW+3aoMj0+UffDwtsEKmF9M2mRZ/KDS80PJ5i8/SQiRtvzyrMipWrRMVl5xbLJXWqvWi/ZXq0qZ2XpnwC/9YbhY+RcZFtzmzZEE/XYYVh05Cr66rSRmA8AHMOUhrMPrGnpSpPr8/I5yqsb74/SKMzt+DLShbz+89oF4wdRbVLYv19H011/d6i+xISHqS3WKUNFT7+QIlxvZHluJqj7ms0mFD8i7J7TpVnrks0Fla1vDdVL8yAn49iFtAFkg4X0K5I/J2mGgvHKbeXXPcsI/cI/j5m4VdCJ4M+3lZi1Key+ZaapvOjwxlHasFZN9qspcR+2aCNYoQBH6OkSZnmKwtpSZVqL4tNWVtbeI/IDPAur8Uk/Wwy2ebdTbsCfdW67okjfQHMcUhpMOu89u87VlR1dv66tbV+j8WoTB/GE4dnkuh0uhThs7E3noT+Pl3s34bMVIR2hcGgp7f4xTQ4gXD6MPtx9smzHa3NrfsqtyTTMJk/mUpfbu14++2Tz69wbap1TZHUFusMwmef0QWSya4p7zdJ8aSyfc2tpGV6+2eTjtHqYpnBT8a/fzZGcB1i+zNPdraT+vuqt44NJ4jUQlZVULPNrdsfYLSL45ih4UC7wsf9tKQiVC+aZGOO44zbd97VvdWQIEXINk8uezm4r2qyDgBzHFIa3Bp3y/+97uM73HKJ0cWt1rl4j5QhhN4TLa8rUZn70uj1E+riDJmaptfohelil72+12J6QF64acqkSTjPt8sF5lILV9bSK1/Lp12ydJEcU3R/MGmQyw1Zdzcd71TGJbgc9fQKFxIXGx3naTL0nShnj5AZEEkbpa83t/Qq10D2tXCJtfK5viBRdDieM3Q440ktOI45fMqlhgJvK6xyXmU0D5lKX7O/rqTT672vH7XLpdDUetHoU7e1NlQdu1awQc5o0jYXG0/ITxfR5yjPbSDrADDHIaXBrEvY/hOD8yl9Zi6bmV3nix2dCqzNejmJL1oZE5PIOe/PLqRRRrfBUni+KCamaor5UBx7sDqqIW19Jms2Gn86WPbzYuW4ezO0G3Yc+bRqXSrLmjNLzjOrleiK7LI1roJHMtncTP2WFm3jDpM8G0x68sii/fqYjQ2jl2Uq4nJerBAPPKzPYDNTOe+qsvRA3FrB1KWROJuauO30qupc6e0rjb7sVWPPjo1GqfEcl+FXZUHvpWlNzxwRq9cZzSybUcKPDmcC0kKTni94RG7hYdtg7o70ZSRqKPuVwZWTSB5r3Hh4aVYpra1iil6STDv6XUy6YTldJtu8grEq2zwx541VlduldQCY2+4aGRkh/3R1da1dK51BB5hWWHvLdVH4VNRotbN5GJTaZGa3SenzVXdrtffSxVEkPIOOQtYeEoSoyXdM0bg0HM2XtZpp3rVSb0Ekjw1rzOq9eA+lNd336r608Wd0b8E2hxuGA/W0MEuDWyOKpLPZPhBKbc5yk9IoJ+YzYmYdhax9r+odUzQuDWe6fEaotxBePiMm9TLQy3fY648Zsr4z6R3KW7DNAW4dpDSALzr/+7z3fU1OW7VBJbsDzCdIaQBfdDr99uJncgy4oBHmP6Q0AACIEEhpAAAQIZDSAAAgQiClAQBAhJhJSrsu9HY67IcaWjp6p/jtKAAA+MIgecE78WfU75ywU5robchNqznDxD0Yv+BcTdpOx9RfYQQAAF8AvU6zlR+gC3dcuClNOHO85sF9R36QZdKbsn6wp2Jol2Pa360HAIA7QvXnyEW1IEEqB4WDa0nlCb/MrvpD8HNGuClNu2HPh5XBv+60VKN8Ly0AAMwR0s+O2x0H81mOy9v0tZn9Lrzy2AP5ZguXuU5ffsrjqpbL6xPzG73yA9R/CH5OmdnlIeJVL9/patlV3rKsInsVDQIAwFxxqs2nP9La3Hry3zt29L+gnE7ztVbV3lv6Vntr66sdf7DFHv9+g5KjGKaF1+zp+HXrnjT5k/anXH/ZfPRkc2vHv+7wWSq9T8nl3764tLrNTer73a7e5Dr595hO/maPxtI08ack5oCZfW2x0NXScu7SpQ7vZ8aKF59JmuoXqyBykb2FlgDg9prmQE1mWt/0WT4sTZKXPAdi6pe/fSTrs5bccubF1hz6MwuCc+fDvQVvlz5AZmn1cf/PkaxlcnjcY8ldvGGsHFSNkH4I3lXz7TcMUnDSvXcWSWmEx+NRCuEZPrtnTd7xK3QJvmBmuLcAwOyY/qX3UVtRtNVNF0bc+6OL2vrJv1by70c0SJD4887BifFxjyV3BZeValfO7n/2EcMj5hzz83sq82hwYuN3VtiXh1zivVcDk0zN11clu6766RIAAMxdM/5deFUhfwh+Lgk3pYlee95PnT5lowi9v+vo2b4qXl4AAIC5bDZ/F165SHDsh+DnmHBTmi7r5V/c/7uCdYnGVH3Mwzv4NYerN+CtNACAeWBWfhde/Yfg55gZ/6p12L+cCxELP60LcEfc7EtvNn6jXPpNdJUfgp8rZnYRP4F8BgAwL83Gb5RLv4k+h38qdsYpDQAAYG5CSgMAgAiBlAYAABECKQ0AACIEUhoAAEQIpDQAAIgQSGkwl4h+b2ev8h0Hc8IdHM9sdj23fncY4NZBSoM7zH+6pub06PeFDvBWs7OXLswBd3A84Xftd9Xsck35jatz63eHAW4dpDS4VaTfvlX9Cd0Jhny+CT+bS9zEb/LenCl/sXcGv+cbYu3HDVW9Tqi1HDPhcdcF39UZTufUNm+IEQPMJ0hpcAv0uWrMicanpZ/Q1ZttHjlj+R1czAGPfDfhscXYyIK3kS2pc7vrSthcu5fe1c8fzM8s5Lgt62b2m7xhukrGIXWt8ByIscm//kYKtSec5eZ8rihz3TdZW9eEg7vK7/n6WvMTx9ZIcL0QU9UhPUrssXPrjXkWLi9Vz9GfA544VLU6ZLs5y9cnphVx3FP5tnN/UWLjScMwku1g4dJSOXuPyLxnZ8us7nPWklzW/h4jdtYmWhyBbeE9ksYenTDTk7dkhvLU1Lj65NiQ124xSv0WpRkt9tHRAMxDym/M4BewIHzT7S3DF1+r3P1v9Of0LjaZzcekcn9bUfT+sR9yCvwaE4nLP+kkk36xKcPqGZYXrrQVR+/+vVS+cjxv476zg3J02GPNeMLaLYVJI2uebZvh7/ZN+kEpq7w2pLCmlLY16Nq9pvRNaUyByv1nrT+sd38i3/1Je2X07rNkAB+/+fya0aYG2yvX7JWCw2f3Gp5t8ynRK22l397Lk+j4oarX6a5/IrDug2f3bYwOGif1QbM5p/GiUvY27z4mbwYyyOLAFuyufyzw41WknNf8ASmM/aIV2ZIZ+91jW/LpZjKmK8fM5ibaavfx3c3vKmOAOQcH6mlhlgazThP/5J7qzXHyqSy/MMTw/WFPoSSphrXK19DFrU0x+AYEMrHgT4oFWw3KTz9o1m63xDe6/iQvMMmPPkQ6msh3uqHhEL25LtPgtJKNBqUt7f2rk0/0jk4QZTpD6YvFSffKp+wGBJHx+QcYZrHBZGps75QmNUKn842CVIOGEc+5bOnZpoXSWTxBWGTYYLKdV+afY0NVr3O527WkMIuuu9awtcAgl8ZZvDT+j253j186+bkqpzo3YdIX9iUYsvpePyOPvYdvuy/7UfpDxgqyJZktG+IZuWNxhWHTkKvrKrNIF3/R41YuIElgq3MewPe4wnyFlAazT+xpqcrT6zPyuQrrm+8P0ujMLfiyksX8/jPaBWOHWe2SWH/fR1O9e7TovoSEB+ktdnZ+BMnHHygxrjeyHFdz1H2NBrWmzOyWM26REfjT3ZYN0o/aCwM+xmnlLNK5QXIrae41LJyYIdTrDPj5KGYBrUJS9wKVgWtNFU2Gnroi43J95k4bPW04XkJ6gXiKJznNe6ZtdZZJR8MKsiW7m3bRfjlLreueOG0Uo91Q8Ut9j/W7xpj1meUHXL6w3iwEmIuQ0mDWee3fd6yo6uz8dWtr/R6LMZaGg4nDM0l0M/5NXu0Kg0FPb/GLaVCNODz5yhQ1oX7PV/OQKecU7+7jXd4thlVSRLs4jsn6J1Jt7FY48aep1Oss1hmEzz6jVRhm4JpawmK0D+TsqT/Z+WHHL9IGa4saRt+ADLLckMU4+cte3pGcrp+wlciWTC57Oajf5mo56WkT2D1Hft35Yfsv0odqdzSqtAowLyClwa1xt/zf6z6+wy2XGF3cap2L90iTK6H3RMvrSlTmvjTuJN8ks/mbvMyy2NW6dv68PI4/vd7ymhINizLbGvd7vhpD6taWhhdarv19upK4SJIrdTQ6aDoS+IP5VacmnndVr0NS0d1NxzuVtRRcjvrJiUU8U8u+5JJraHRLF8ox2bmLQVOruEef1Diqa5uM6fRc7RiyJcXGE/KTQPQ5ynMbPKLIv8TWdtBWlwS1CjDvIKXBrEvY/hOD8yl9Zi6bmV3nix2d0qzNejmJL1oZE5PIOe/PLqRRRrfBUni+KCamSjlUq5qV3+QdlZRVm8wXy+M4/fXsAhqd2hS/55u0wdLfwaQH3tLTGMrsBn673mhmM9c/bPt4+47N40/+Eep14nJerBAPPKzPYDNTOe+qsnRae4wmZVvxUEOaNAyj/nsXt/1su7QdlqVbvuspWh5TdZpuQV1KdlxHd1ZK8uT3xMiWrGCsypZMzHljVeX2JI3GwBaLh9LIYNhU/XPvb3sp9ya2LsAdNeNftQYIa2+Rfj9XnIUfHAw2G7/JezNEQe33fHsa0v4l7tWX0yfMiEhl5staTRRdVKVaRwpOvZLTbocBZ3mOr+A3oRO/agtDghB1B7cuTA8H6mlhlga3hvT7ubN9eJyN3+S9GZN+z1fo7XTZDzcZMk2T39mTxjplPiNU60y/klNtB9H/Hu84XH+tgJ4IVafawr3Tdgww1yGlAdwofzf/bq+GPVmdMmdSgehz896/rHnpYK7KZxsAIh5OPMKMYW8BuCPw0psWZmkAABAhkNIAACBCIKUBAECEQEoDAIAIgZQGAAARAikNAAAiBFIaAABECKQ0AACIEEhpAAAQIZDSAAAgQuALsWDGyN5CSwBwe+FAPTWkNJgx7C0AdwReetPCiUcAAIgQSGkAABAhkNIAACBCIKUBAECEQEoDAIAIgZQGAAARAikNAAAiBFIaAABECHzUGmZs7uwtoih+/te/KvvwrXDXXXf9zZe+pNFo6DLAHYUD9bQwS4P5iuSzv4rirctnBGmcdEHQZQCY25DSYNaJ3qNVNR1+ujSZ6Pd29gpSwWt/ocZ1VYnOGJmf0dItdts6AoCbhJQGt90AbzU7e+nCjbul87Ngt60jALhJSGkw6zQJ+XuqjTq6JBEFQRCv04UxmoTtL1abltEliVyRlgOk4OTo9N45tLL+XVpW9ec3yr6xcuU3Vja8QwMAML8hpcHs8xyI4RzSiUdSqD3hLDfnc0WZ677J2romJCaPjVSUTjySQq3jVDmbx3Fb1iWabZ4hpYLobeT0qXmcJc+4nrP3zPJ7Wl993PrHC81ldAkA5j2kNLi1Ws6Iz73a2vpqx+9/ltDY5Ar9DlvL764/10pqtv/+5QcbG+W34sRO6453Hj/+7ydbm092tjzuLrbyoZPa6JRr5TcOvcNcO1W6cmVOHWPNkSPfO/Vn5p36lWWnril1STnEzOzdhrFGAGC+QUqDWyvZaIiTC9r7Vyef6PXJZTXJjz5EK65eley4RCqK7g5b+mbTok+lE4/CQsPjKTZPj1xlsmundv9uw39cuPBHcntmDbN0s+3ChZbnmLIWObJ/81eZNVv3Mb91/1mq/O65C/ueXCM/brx36u3RSiMtTO7UJy0BYA5CSoM5S/D3Mc46jrMotxL7ZYM2it430dJ1jzEV35nyXbGvJm9gfB+SwjudFx5L/qoSHOfdc9bfkEakWRqZ4QHAvIOUBnOWVhfLZFW1tjaP3bY/QO+b5Kub95PZ1UN/oKcZ1ZC0d/HcO8w7f2AKNy+lsYmea5ZmdfLN8iCNAcB8gZQGc5Ym2VjqOObwKZdKCrytsMo5zYfY1lguNJf95n9JczGGiYnbcOHD4Oz21XWPXvjDoXOMXu2kI/HfozfUkZwHAPMVUhrMXRp9WZOeL3jEyOZm6h+2DebuSA++4j+YfD2IfGVHLtNSrKQs6Uxjecro5SE0cqGOWTc6/XrnkFTfKl1EIl8PsnTzP+27IJWlW+BaEgCYN/AdjzBjt31vEQWB0WonftHi/yHRmXq3ofTDJ22Pq72RNqX/ptXSEsCdgwP1tDBLg7lPMzmfzZgyjbNH/9PM8xkAzBdIaTBf3XXXXbQUDvmyfvlq/hmbWUcAcOcgpcF89Tdf+hIt3WK3rSMAuElIaTBfaTSaL2k0t3QKRRqXfi0Nv5cGME/g8hCYMewtAHcEXnrTwiwNAAAiBFIaAABECKQ0AACIEEhpAAAQIZDSAAAgQiClAQBAhEBKAwCACIGUBgAAEWLso9bKMgAAwDyFbw+BGcPeAnBH4KU3LZx4BACACIGUBgAAEQIpDQAAIgRSGgAARAikNAAAiBBIaQAAECGQ0gAAIEIgpQEAQIRASgMAgAiBlAYAABHiBlKa6Ovi+UsCXQK4GaLX/kKN6ypdulmz2xoAzDczTmnieeuODJY91UuXAe4wrz3X7qVlAPhCm2FKE70NL/k2PZ9OFwFCEwVCpAtBpHggrEnY/mK1aRldkgwJwhAtSuVJLUxqVhTOjC5Pak2qHGgtWKiWVSsDwDwxo5Qmeo9UdrMVWcvpMoC6PleNOdH4NMcVpenNNo+cJ/wOjjvqsBWy+Za8tK/py0/55KoeWwznkE4VkkKtw1GeWcjlbUxkD/GeI5xU3vS1zGqXX66q0qzfVZO7+zhzfHcuW3Oa1Aq0plTWpxVxXEaifmdLr5Krrjo4i91xMJ/lpJb1O53KIOTKRrOF43KM7K7R7gBg3hmReTwepTAVb33G081XRkb624qi97tpEL54pttbhi++Vrn738ieIrnYZDYfk8rSbvOE1f2JHO1tzFtj7ZZKbmt0UdtHSmHNbtegFPukvTI6+vl/65fKn3dbHzM3f0BK6s3KD7SO7o6B1q40P71xLy+3NjLs3p+RUdc9TIofkUFkWD1SceTzi41Pr7G+K1U4uye60iUHR/rbX9nb7pOLAHNMWAfqL7bwZ2m+lp++uekHOXF0ESAUTfyTe6o3kz1FFAS/MMTw/aPTHpMh6V65sGJ1sr/70sTrOJJX36+V/r13dfLmdEOSTipHLY27j/cPkFLoZie7zDv+q2CbXm6N0STlW77+f7tG3/5NNazVSP9Gxa9O8nf/T9KIZuGShO5zvE86FakzPVNhipUrAsB8E25K852oOf7Qj7evoosAUxB7Wqry9PqMfK7C+ub7gzR602bQ7ICf1y5YQBcYZvGSWH9fn5QX1SUUHi67x1m+ZV1ian5VqxeX8wLMU2GmNK9jj9Pz07SvxUgSS5zMS5kxMTYPvRcgmNf+fceKqs7OX7e21u+xGGdryjOTZhfrDMJnn9EFkuH6+3SxsYvpkoqoONM/7mttf/vtf61Y0ZFWexpJDWBeCjOlJZS+/WHA2wfTmedPfvhhaRK9F2CSu+X/XvfxHW65NEvUm+3u66Mlarkh6+6m451KZhI9R+sv/oMpQV5Q09tiKWm5JBcXL12qnBoFgHloRlc8AoQjYftPDM6n9Jm5bGZ2nS82mYZvVqhmk7LqF9V+OybtSPCH0+JyrNX3HErTZ7BsqrF2sKyOC53RmPjs55Jd2+WW12e2LD66Y4PyJhwAzDN3jYyMkH+6urrWrl2rhACmFtbecl0UPhU1Wq18JcbsmWmzQ4IQFW5tURCYL2s1UXQRYK7BgXpamKXBrRFF8s5s5zNips3eO4PaUqZEPgOYz5DSAAAgQiClAQBAhEBKAwCACIGUBgAAEQIpDQAAIgRSGgAARAikNAAAiBBIaQAAECGQ0gAAIEIgpQEAQIRASgMAgAiBlAYAABFi7Jv4lWUAAIB5Cj8uAzOGvQXgjsBLb1o48QgAABECKQ0AACIEUhoAAEQIpDQAAIgQSGkAABAhkNIAACBCIKUBAECEQEoDAIAIgZQGAAARAikNAAAiBFIazCWi39vZK9CFOeAOjmc2uxZ6O71+kS4ARDCkNLjD/Kdrak776cIAbzU7e+nCHHAHxxN+135XzS7X6BZU1es0W/kBugAQwZDS4FYRBSKMqcGQzzdEi2OG1B4rtajWIKk8a1MQuY/rdGGi61PeO06ItR83VPU6odZyzITHXRd8V2c4nVPbvCFGDDCfIKXBLdDnqjEnGp/muKI0vdnmkTOW38HFHPDIdxMeW4yNLHgb2ZI6t7uuhM21e+ld/fzB/MxCjtuyTr/T6aNBn2sXq98kNZi4vrzlknLkJY3UtrTmG3O42o4pZynBrpJxSF0rPAdibPIPK5FC7QlnuTmfK8pc903W1jXh4C56Gzn9N9M4C2d+RF9+ShqXrzU/cWyNBNcLMVUd0qPEHju33phn4fJS9VyjV25o4lDV6pDt5ixfn5hWxHFP5dvO/UWJjScNw0i2g4VLS+XsPSLznp0ts7rPWUtyWft7jNhZm2hxBLaF90gae3TCTE/ekhnKU1Pj6pNjQ167xSj1W5RmtNhHRwMwD43IPB6PUgCY1nR7y/DF1yp3/9sVZeFik9l8TCr3txVF73crwZERtzXaqiyQeFFbv1wcGfmIVMqweoblhSttxdG7fy+VrxzP27jv7KAcHfZYM56wdkth0siaZ9toR+GSuqBdE+790VZ5bUhhTSlta9C1e03pm9KYApX7z1p/WO/+RL77k/bK6N1nyQA+fvP5NaNNDbZXrtkrBYfP7jU82+ZTolfaSr+9lyfR8UNVr9Nd/0Rg3QfP7tsYHTRO6oNmc07jRaXsbd59TN4MZJDFgS3YXf9YUdtHgXJe8wekQHqnQbIlM/a7x7bk081kTFeOmc1NtNXu47ub31XGAHMODtTTwiwNZp0m/sk91Zvj5FNZfmGI4fvDnkJJUg1rNXIhbm2KwTcgkIkFf1Is2GrQylHN2u2W+EbXn+QFJvnRh0hHE/lONzQcojfXZRqcVrLRoLSlvX918one0QmiTGcofbE46V75lN2AIDI+/wDDLDaYTI3tndKkRuh0vlGQatAw4jmXLT3btFA6iycIiwwbTLbzyvxzbKjqdS53u5YUZtF11xq2Fhjk0jiLl8b/0e3u8UsnP1flVOcmKLWDJBiy+l4/I4+9h2+7L/vR5XKYIluS2bIhnpE7FlcYNg25uq4yi3TxFz1u5QKSBLY654FJrQLME0hpMPvEnpaqPL0+I5+rsL75/iCNztyCLytZzO8/o10wdpjVLon193001btHi+5LSHiQ3mKVNm6Wjz9QYlxvZDmu5qj7Gg1qTZnZLWfcIiPwp7stG5JISBjwMU4rZ5HODZJbSXOvYeHEDKFeZ8DPRzELaBWSuheoDFxrqmgy9NQVGZfrM3fa6GnD8RLSC8RTPMlp3jNtq7NMOhpWkC3Z3bSL9stZal33xGmjGO2Gil/qe6zfNcaszyw/4PKF9WYhwFyElAazzmv/vmNFVWfnr1tb6/dYjLE0HEwcnkmi0+lShM/G3uAR+vt0sX87VabSrjAY9PQWv5gG1YjDk69MUSOcPsx+nH3ybEdrc+u+yi3JNMxoHjLlnOLdfbzLu8WwSopoF8cxWf9Eqo3dChPkumPU6yzWGYTPPqNVGGbgmlrCYrQP5OypP9n5Yccv0gZrixpG34AMstyQxTj5y17ekZyun7CVyJZMLns5qN/majnpaRPYPUd+3flh+y/Sh2p3NKq0CjAvIKXBrXG3/N/rPr7DLZcYXdxqnYv3SJMrofdEy+tKVOa+NO4k3yRxhkxN02u8Mi8Tu+z1vRbTA/LCDVgWu1rXzp+Xx/Gn11teU6JhUWZbwnm+XS5INIbUrS0NL7Rc+/t0JXGRJFfqaHTQdCTwB/OrTk0876peh6Siu5uOdyprKbgc9ZMTi3imln3JJdfQ6JYulGOycxeDplZxjz6pcVTXNhnT6bnaMWRLio0n5CeB6HOU5zZ4RJF/ia3toK0uCWoVYN5BSoNZl7D9JwbnU/rMXDYzu84XOzqlWZv1chJftDImJpFz3p9dSKOMboOl8HxRTEyVcqhWFccerI5qSFufyZqNxp8Olv28eOLEZwaSsmqT+WJ5HKe/nl1Ao1PTbthx5NOqdaksa84sOc+spmFJ0gZLfweTHnhLT2Mosxv47Xqjmc1c/7Dt4+07No8/+Ueo14nLebFCPPCwPoPNTOW8q8rSae0xmpRtxUMNadIwjPrvXdz2s+3SdliWbvmup2h5TNVpugV1KdlxHd1ZKcmT3xMjW7KCsSpbMjHnjVWV25M0GgNbLB5KI4NhU/XPvb/tpdyb2LoAd9RdIyMj5J+urq61a9cqIYCphbW3XBeFT0WNVjubVxpIbTKz2+SMiIIg3q3V3ksXqZ6GtH+Je/Xl9AkzIlKZ+bJWE0UXVanWkYJTr+S022HAWZ7jK/hN6MSv2sKQIETdwa0L08OBelqYpcGtEUXS2WwfHqU27+QRV1qlcflM6O102Q83GTJNk9/Zk8Y6ZT4jVOtMv5JTbQfR/x7vOFx/rYCeCFWn2sK903YMMNchpQHcKH83/26vhj1ZnTJnUoHoc/Pev6x56WCuymcbACIeTjzCjGFvAbgj8NKbFmZpAAAQIZDSAAAgQiClAQBAhEBKAwCACIGUBgAAEQIpDQAAIgRSGgAARAikNAAAiBBIaQAAECGQ0gAAIELgC7FgxsjeQksAcHvhQD01pDSYMewtAHcEXnrTwolHAACIEEhpAAAQIZDSAAAgQiClAQBAhEBKAwCACIGUBgAAEQIpDQAAIgRSGgAARAikNAAAiBBIaQAAECGQ0gAAIEIgpcFcIvq9nb0CXbg1bl0XN9SyeNXLX5rV4Qz08u/5RbpAzX4vAHMSUhrcYf7TNTWn/XRhgLeanb104da4oS68jaz9PVoO6YZaFs5Z2VOzusaXnewr/IT0Nfu9AMxJSGlwq4gCMWG2oGbI5xuixTFDao+VWlRrkFQOox911+VGr9MlalJQHOSFCXWChBqXFJ+8alI09HhVV1x+0Nh41FuQRxF6kOOE6EVFOOMBmDOQ0uAW6HPVmBONT3NcUZrebPPIh3W/g4s54JHvJjy2GBtZILOfkjq3u66EzbV76V39/MH8zEKO27JOv9Ppo0Gfaxer3yQ1mLi+vOWScpAljdS2tOYbc7jajtF53gyI3kZO/800zsKZH9GXn6Jd+U7XsBvNUnAjWyM16ydd736NOf4jlt3lmthNn7N8fWJaEcc9lW879xcaJKQtoJfiGXryqNG1kHtMzeMsecb1nL1nfKoY8tot+sQMjrOY9evLnX1y8KqDszS0/JglTdkvkGX1FsQuG5tozCNjzi53fjCsBNWp9OJryUu0BX4CT3BVxVS5pKdM3uakpvQk1rjUxwMwx4zIPB6PUgCY1nR7y/DF1yp3/9sVZeFik9l8TCr3txVF73crwZERtzXaqiyQeFFbv1wcGfmIVMqweoblhSttxdG7fy+VrxzP27jv7KAcHfZYM56wdkth0siaZ9toR+GSupC77j9r/WG9+xM5+El7ZfTus6TN4bO7oyvblWB/e/1P2pXW3fujrSor3V3/RGC0g2f3bYymK3Wl+ekM6zk6Xvf+jLzjUjPD/N41xc1XPpfDvraiNXtJj4HN0s9bK19xK20Nuyqj90jDGb9BpBa+XdoWaOFZg9TCyMftlYZn23xy8PMrzcXR0cWBDUpN3cug8/k1o0/N4G8r1/xECpJtnrHfPbbNn26W1mH8eOA2w4F6WpilwazTxD+5p3pznHx2yi8MMXz/jKZQqYa1GrkQtzbF4BsQyHSBPykWbDVo5ahm7XZLfKPrT/ICk/zoQ6SjiXynGxoO0ZvrMg1OpDOUvlicdK98bm1AEBmff4C0vnDJqm73eZ90sk1nKv6BSaX1gMvdriWFWXS0WsPWAoNcYi7zjqgtpvsZ6fygIManbBrs6PIzorvDlp2bHRcl14nNOvJ2hUF5qEynL93zTBIJkK12bVBk+vyj74cFNojUQvpm06JP5YYXGh5PsXl6yMSNt2cVZsXKVaLisnOL5ZI61V603zI92tTOS1M+gX/rjcLHyLjINme2bIin67DCsGnI1XVVaSMwHoA5BykNZp/Y01KVp9dn5HMV1jffH6TRmVvwZSWL+f1ntAvGjqLaJbH+vo+mun5v0X0JCQ/SW6zShgoff6DEuN7IclzNUfc1Gkwo/kXZPafKM9clGgurWt6bqhdmwM9HMQvoAkmHC2hXJP5OU42F45TbS657lpF7BH8fs/AroZNBH28rMepT2XxLTdP50eGMI7XgrBtt1lJiv2zQRjHCgI9R0qRM85WFtKRKtZfFpqytLbxHZAZ4l9dikn42mWzz7qZdgb5qXffEkb4A5jikNJh1Xvv3HSuqOjt/3dpav8diVKYP44nDM0l0Ol2K8NnYG09Cf58u9m9DZipCu8Jg0NNb/GIanEA4fZj9OPvk2Y7W5tZ9lVuSaZjMn0ylL7d2vP32yedXuDbVuqZIaot1BuGzz+gCyWTXlPebpHhS2b7mVtIyvf2zScdodbHM4Cfj3z8bI7gOsf2ZJzvbSf191VvHhhNEaiGrKqjZ5tbtDzDaxXHM0HCgXeHjflpSEaoXTbIxx3HG7Tvv6t5qSJAiZJsnl70c3Fc1WQeAOQ4pDW6Nu+X/XvfxHW65xOjiVutcvEfKEELviZbXlajMfWn0+gl1cYZMTdNr9MJ0scte32sxPSAv3DRl0iSc59vlAnOphStr6ZWv5dMuWbpIjim6P5g0yOWGrLubjncq4xJcjnp6hQuJi42O8zQZ+k6Us0fIDIikjdLXm1t6lWsg+1q4xFr5XF+QKDoczxk6nPGkFhzHHD7lUkOBtxVWOa8ymodMpa/ZX1fS6fXe14/a5VJoar1o9KnbWhuqjl0r2CBnNGmbi40n5KeL6HOU5zaQdQCY45DSYNYlbP+JwfmUPjOXzcyu88WOTgXWZr2cxBetjIlJ5Jz3ZxfSKKPbYCk8XxQTUzXFfCiOPVgd1ZC2PpM1G40/HSz7ebFy3L0Z2g07jnxatS6VZc2ZJeeZ1Up0RXbZGlfBI5lsbqZ+S4u2cYdJng0mPXlk0X59zMaG0csyFXE5L1aIBx7WZ7CZqZx3VVl6IG6tYOrSSJxNTdx2elV1rvT2lUZf9qqxZ8dGo9R4jsvwq7Kg99K0pmeOiNXrjGaWzSjhR4czAWmhSc8XPCK38LBtMHdH+jISNZT9yuDKSSSPNW48vDSrlNZWMUUvSaYd/S4m3bCcLpNtXsFYlW2emPPGqsrt0joAzG13jYyMkH+6urrWrpXOoANMK6y95boofCpqtNrZPAxKbTKz26T0+aq7tdp76eIoEp5BRyFrDwlC1OQ7pmhcGo7my1rNNO9aqbcgkseGNWb1XryH0prue3Vf2vgzurdgm8MNw4F6Wpilwa0RRdLZbB8IpTZnuUlplBPzGTGzjkLWvlf1jikal4YzXT4j1FsIL58Rk3oZ6OU77PXHDFnfmfQO5S3Y5gC3DlIawBed/33e+74mp63aoJLdAeYTpDSALzqdfnvxMzkGXNAI8x9SGgAARAikNAAAiBC44hFmDHsLwB0RzktPFMXP//pX5cA+j9x1111/86UvaTQ3ey0SZmkAABGC5LO/iuK8y2cEGTMZOUGXb1T4KU3o7eT5sdst/ulhAACYITI/o6X56ebHH3ZKE7uPmxuc73q99NYX9NtQAABw583H+Vmwmx9/2CltwO9LSd/xTHExvU35oxsAAHCn/fmNstI3/kwXJH8+9b2V3/jeqeDQbCDNlp1S/fWIKbzb8I1D79Dy7Ak7pV31OXWLFig/YE9DAAAwj3x18/4Lf9y/+at0MQKFm9KkX6z4wF6y0cw9nfa1yb8xDwAAc5o8RVu5MjA3eudQWf2hsm+sLDv1RgOJ178rRZSyFKSzrnfqpcWxyDuHVta/capUDkpTQDLZWplS/pvT5cZA46Md0UWGuXaq9NApGpTmiHKFHCtTlytXm/kML7SwL+IXBV+/GBcrfcGAcN6WVzxc8Ydxv8kLXxxkb6ElALi9pj5Q/x9h3HV7f36jbDdTbXs8aFZGMlDnQ398Zg0pkuSUwzT/R1zjd363oeXR0//CVP+9LyXnYu1/kGkcqWaPJoUPD638g/6C5UH5gaMRWockqp8y/yTN+UiKqmF+YN28VOkjYDTOnCo1VqxsIe0E1QwaSbD/pp3qpxCndWOfSxNcL6z0bv2wFJ9N+kLC59IA7ohpX3qTU9prMVYpIQWMT2kkXW39UKpD/kuSH0lpNIFJk7Nz6y489Afpv8Vy2iHZ6ETM/mImkOTGTExppN/vlJ+Wixv2dcgpjSY/2inNkbcgpYV94vES772Kk40AAF8MG6NjaGmGrp3aXU6mZBf+eOHMvo00dtuEfXnIJUfeT53Kz+kK5+1WZ2nSKjkOAABz0lcfHz9FC9uf32i0fj3mq0xMzEbrH96VQ++eKGdCJbmvxnz99If/L12QKOnw2h9++xtlWc1/j95w8cPZvvYy7JSmTav+xf1vbFuuN6YmPvzSYOG/Bv8gLwAAzDnvHBq7GEQ+lzh2UUa9kqgmseZIF3F853cb/kM6JfjVzfubGTnyjRymJfSlkmv0ZcoDpe6WrnuMqfgOKf+Ueew5WkFFoNqduTyEEoUhjdpPJsIXCN5LA7gjZvpe2kyNvdF159ym99JGIZ8BAMxRd911Fy3NTzc//pmmNAAAmKP+5ktfoqUbsuaZOzxFu8nxE0hpAAARQqPRfEmjmY9zNTJm6adlbvrHZfB7aTBj2FsA7gi89KaFWRoAAEQIpDQAAIgQSGkAABAhkNJgLhH93tvwg+lDXvtOls0tabnE+Dtqqo56Z/Wr3kT/e3zvAF0I16yvuFqD4lUvf+mWb12AOwgpDe4w/+mamtN+ujDAW83OXrpwq3gb81wPVh+pfzlnBY2EadxQQxL4V1jnZboQrllfcbUGhXNW9tSt3roAdxJSGtwq0s/FhvN7sUM+3xAtjhlSe2yoH6AllWcyzxKv+5MTErRa6XJhnbF6T35C0IXDpI+xtqQOg8emOtQA1TETIdcl9KiV39qVv1J1nOA1DdGC/EhankaoAU8Wui+VQQLcOUhpcAv0uWrMicanOa4oTW+2eeQ04HdwMQc88t2ExxZjIwveRrakzu2uK2Fz7V56Vz9/MD+zkOO2rNPvdPpo0Ofaxeo3SQ0mri9vuaQcXUkjtS2t+cYcrrZj2smTwk/a2f0ac/xHrNJjYFSkwB1qqTGncUXySKRVMJotHJdjZHe5SOtqQw3wOXfqEzPI8Mz5B/m/0CAhD1uKk+1Q4+pTgqK3kdOn5nGWPKPKr+nK934zjbNw5kf05aeUDTBhTUO00OcsX5+YVsRxT+XbzgWNYrIhr90iD9hi1q8vd0oD87XkJdoCP4QnuKpiqlzSE6fW11UHZ2lo+TFL+rJfkAIAc8WIzOPxKAWAaU23twxffK1y979dURYuNpnNx6Ryf1tR9H63EhwZcVujrcoCiRe19cvFkZGPSKUMq2dYXrjSVhy9+/dS+crxvI37zg7K0WGPNeMJa7cUJo2sebaNdhQ+9/5o6+gaBEYlFZ6wuj9RwsNn90RXupRh9Le/srfdJ5eChxqk+3BGxn63UnuQ37sxmrZPhk3iY8N+upmMdZjfu6a4+crnctTXVrRm71nySGnF5Q3Sf9b6w3o6jE/aK6N3S/eOX1PSwrdL2wItPGuQWxjprn8isOkGz+6TRhHY3IqxleWtla/QAQ+7KqP3SA0MOp9fM/oEDf62cs1PpKB6X+OeJrh9cKCeFmZpMOs08U/uqd4cJ5+X8gtDDN8f5hRKkWpYq5wIjFubYvANCGQCwZ8UC7YalG8z1azdbolvdP1JXmCSH32IdDSR73RDwyF6c4X/tpbJkES/wlSzcElC9zneJ51s05meqTDFKnFVvu6OJYVPJimD1uq3FaTIJWnYzJYN8Yx00k4QVxg2Dbm6roruDlt2bnZclFwlNuvI2+N/HV5nKH2xWBrGkCAMkO59fnqlSWBNpRbSN5sWfSq3u9DweIrN08Mwl7tdSwqz6KbTGrYWGOSSKp2+dM8z0oDJM3RtUGT6/GQra79lerSpnZemYQL/1huFj5FxhehLEniaAOYQpDSYfWJPS1WeXp+Rz1VY33x/kEZnbsGXlSzm95/RLhg7fmqXxPr7Pprqyr1F9yUkPEhvsTf0vd4JhYfL7nGWb1mXmJpf1eqd8jJBMjyGUVKUZMEC2iOJdzft4jiLcqt13ROnjRL8fczCr0yRDHz8gRLjeiPLcTVH3Wq/uSG14KwLNFtiv2zQkt4H/HwUs4DWIUl5dBSq+nhbiVGfyuZbaprOj3ay2JS1tYX3iMwA7/JaTNKXVIToC2CuQkqDWee1f9+xoqqz89etrfV7LEa1CY44PJNEp9OlCJ+NveUk9PfpYv92qiO2doXBoKe3+MU0ODNRcaZ/3Nfa/vbb/1qxoiOt9vQUSW3C8K5d+0ApkHhy2cutrc2BW7VJp9XFMoOfjNWeQDh9mP04++TZDlJ/X+WWZBoOJrWQVRXcbOv2B0hC0hmEzz6jdUiGu0bfuVMhuA6x/ZknO9vJY/dVbw10okk25jjOuH3nXd1bDQlSJERfAHMVUhrcGnfL/73u4zvcconRxa3WuXiPlBqE3hMtrytRmfvS6FUg6uIMmZqm13glq4hd9vpei+nWHlh7WyzSp9Yki5cuDfpBJbWhjhue0NFWT0/NkbjYeEJeY6LPUZ7b4BFJ2ih9vbmlV7lysq+FS6yVz/WNo0zihPN8u1wYT2rBccyh/MQ8I/C2wirnVYZZbsi6u+l4Jx2Fy1E/6RqW8aJoJ54zY51o9KnbWhuqjl0r2CBntFB9AcxVSGkw6xK2/8TgfEqfmctmZtf5YkcnAWuzXk7ii1bGxCRyzvuzC2mU0W2wFJ4viompctFjv4o49mB1VEPa+kzWbDT+dLDs58XKEfeWic9+Ltm1XV6F9Zkti4/u2CBNCkMNNY7dUzFke5gML8PI9awu2xyIH6xgrMqwE3PeWFW5PUlD0kbZq8aeHRuNbG6mPsdl+NW4H4jXbthx5NOqdaksa84sOc+spuFxSAtNer7gEbmFh22DuTvSl5FwXM6LFeKBh/UZbGYq511Vlq7UVqE1PXNErF5nNLNsRgk/rpMk045+F5NuWE6XQ/QFMEfhm/hhxsLaW66LwqeiRvnw12yR2mRmt8mpiYLAfFmrCfPdI6m22ujUhx2qtoTcJ96tne7ndtVbmKrdcaRONJPWznsorem+V/elTTivG3arcCvhQD0tzNLg1ogi6Wy2D4FSm7f1qCr1F/7VEKFGpz7sqdaF3BfGz8ertzBVu+NInYxbu4FevsNef8yQ9Z3J71OG3SrAHYWUBgAS//u8931NTlu1YfpsCjBHIaUBgESn3178TI5BRxcB5iOkNAAAiBBIaQAAECGQ0gAAIEIgpQEAQIRASgMAgAiBlAYAABECKQ0AACIEUhoAAEQIpDQAAIgQ+NpimDGyt9ASANxeOFBPDSkNZgx7C8AdgZfetHDiEQAAIgRSGgAARAikNAAAiBBIaQAAECGQ0gAAIEIgpQEAQIRASgMAgAiBlAYAABECKQ0AACIEvj0EZmzu7C2iKH7+178q+/CtcNddd/3Nl76k0WjoMsAdhQP1tDBLg/mK5LO/iuKty2cEaZx0QdBlAJjbkNJg1oneo1U1HX66NJno93b2ClLBa3+hxnVVic4YmZ/R0i122zoCgJuElAa33QBvNTt76cKNu6Xzs2C3rSMAuElIaTDrNAn5e6qNOrokEQVBEK/ThTGahO0vVpuW0SWJXJGWA6Tg5Oj03jm0sv5dWlb15zfKvrFy5TdWNrxDAwAwvyGlwezzHIjhHNKJR1KoPeEsN+dzRZnrvsnauiYkJo+NVJROPJJCreNUOZvHcVvWJZptniGlguht5PSpeZwlz7ies/fM8ntaX33c+scLzWV0CQDmPaQ0uLVazojPvdra+mrH73+W0NjkCv0OW8vvrj/XSmq2//7lBxsb5bfixE7rjnceP/7vJ1ubT3a2PO4utvKhk9rolGvlNw69w1w7VbpyZU4dY82RI9879WfmnfqVZaeuKXVJOcTM7N2GsUYAYL5BSoNbK9loiJML2vtXJ5/o9cllNcmPPkQrrl6V7LhEKoruDlv6ZtOiT6UTj8JCw+MpNk+PXGWya6d2/27Df1y48Edye2YNs3Sz7cKFlueYshY5sn/zV5k1W/cxv3X/War87rkL+55cIz9uvHfq7dFKIy1M7tQnLQFgDkJKgzlL8PcxzjqOsyi3EvtlgzaK3jfR0nWPMRXfmfJdsa8mb2B8H5LCO50XHkv+qhIc591z1t+QRqRZGpnhAcC8g5QGc5ZWF8tkVbW2No/dtj9A75vkq5v3k9nVQ3+gpxnVkLR38dw7zDt/YAo3L6WxiZ5rlmZ18s3yII0BwHyBlAZzlibZWOo45vApl0oKvK2wyjnNh9jWWC40l/3mf0lzMYaJidtw4cPg7PbVdY9e+MOhc4xe7aQj8d+jN9SRnAcA8xVSGsxdGn1Zk54veMTI5mbqH7YN5u5ID77iP5h8PYh8ZUcu01KspCzpTGN5yujlITRyoY5ZNzr9eueQVN8qXUQiXw+ydPM/7bsglaVb4FoSAJg38B2PMGO3fW8RBYHRaid+0eL/IdGZereh9MMnbY+rvZE2pf+m1dISwJ2DA/W0MEuDuU8zOZ8Rd911Fy2FQ5nG2aP/aeb5bGYdAcCdg5QG89XffOlLtBQO+bJ++Wr+GZtZRwBw5yClwXyl0Wi+pNHc0ikUaVz6aRn8uAzAPIH30mDGsLcA3BF46U0LszQAAIgQSGkAABAhkNIAACBCIKUBAECEQEoDAIAIgZQGAAARAikNAAAiBFIaAABECKQ0AACIEGPfHqIsAwAAzFP4QiyYMewtAHcEXnrTwolHAACIEEhpAAAQIZDSAAAgQiClAQBAhEBKAwCACIGUBgAAEQIpDQAAIgRSGgAARAikNAAAiBBIaQAAECGQ0uALSfR7O3sFunB7zWbXQm+n1y/SBQBASoMvpAHeanb20oXbK/yu/a6aXS4/XVDV6zRb+QG6AABIaXB7iQIxcV6hGiSGVKM3RupDvE4XJro+5b3BwhlqiDpyH7SsauLjrgu+qzObzkktDNFyQKghA0QepDSYfZ4DMZxjdHZx1cFZlAXR28gZN3GchUtL5ew9ykFWCupT8zhLnnF9IOixxdS2tOYbc7jajilnKcFIRzE2D12QxmCTfzGJFGpPOMvN+VxR5rpvsrauCQd3eQDfTCOjMj+iLz/lIyFfa37igUBLguuFmKoO8qhwhqpah2H6nOXrE9OKOO6pfNu5v9BgsCGv3WKUKhSlGS12L3nce3a2zOo+Zy3JZe3vMWJnbSLdjBLvkTT26PiZXp+rxqyXWsjQs7tc0moQk5sFiGwjMo/HoxQApjXt3uLeH13U1k8XPmorKpYXPmg25zReVILe5t3HuodHRob5vd8ubbvyuRz0tT1r2HuWREfc1ug1z7ZdkaNhIx1FW910QRqDVR4mKawhXcjBQdfuNaVvSoMJVO4/a/1hvfsT+e5P2iujd0sD+PjN59eMNjXYXrlGGlU4Qw1Rp7v+iQyrRyqR5s7u2xgdNE7FlWNmcxPdNt3Hdze/K1cObDpJd/1jRW0fBcp5zR+QAuldCV5pfjrDem5QvnfYvT8j77g0JPVmYd7CgXpamKXB7bJ4afwf3e4ev3R+b1VOdW6ChhHdHbb0zaZFn0qnxoSFhsdTbJ4epXbyow/FKaVgvtMNDYfozXWZBqeVbDQobWnvX518opfOYBQ6Q+mLxUn3ymcOBwSR8fkHyFANJlNje6c0qRE6nW8UpBo04Qw1RJ3L3a4lhVlrNXIdrWFrgUEuBVuki7/ocStXeiSw1TkPKJWDJRiy+l4/I4+9h2+7L/vR5XJYcZl3RG0x3c/IHYvxKZsGO7rIlC6MZgEiClIa3C5aU0WToaeuyLhcn7nT5uojIcHfxzjrpFOR8q3EftmgjVJqq1t0X0LCg/QWq6XBm+PjD5QY1xtZjqs56r5Gg1pTZnbLGbfICPzpbsuGpPCGGqLOgJ+PYhbQOgyjWTB54NoNFb/U91i/a4xZn1l+wOVTe1cvIb1APMWTnOY907Y6y6SjYRnp4p2mGtovx73kumeZ1Ek4zQJEFGWyhvkshG9mJx4/aDaPnT1TDPf/dvfGx+q7R4bP7onee45GgwTOp83EuBOPUsuBE4/jzoIqdUYLg7+tjK5qV07Yjet3+Oxew96zvjefl8YpL08/1BB1pDOuzWNnUb31GyedeBwz3N++Z+PGw3Kf4048Elean85r/qC7/rHK0RGP9k66+O6UJ2qDm4V5CwfqaWGWBrMvbnm6u4OX5gTX/a7jxy/KQfFMLfuSS76AT6NbulCOaZKNpY5jDjp7EHhbYZXzqly+ActiV+va+fNSD8KfXm95TYmGRTkfJ5zn2+WCRGNI3drS8ELLtb9PT5CXwxhqiDrLDVl3Nx3vVK5dFFyOeq9cCiLyL7G1HXTbLFG2jeLcxaCpVdyjT2oc1bVNxnTDhIke6UJsdMjrTvhOlLNHPOIUzQJEKKQ0mH26DWVlYq1+eUzMI7WiqTBZDmpSthUPNaSlsqzZqP/exW0/205ShUZf1qTnCx4xsrmZ+odtg7k70pfJtW9EUlZtMl+8MiYmkTv99ewCGp2adsOOI59WrZNGlVlynllNw5KkDZb+DiZ99C29cIYaok5czosV4oGH9RlsZirnXVWWrtQeozGwxeKhNKOZZVP1z72/7aVcOY0uS7d811O0PKbqNM1VupTsuI7urJTkSe+JxeVYK5i6NNIFm5q47fSq6twkTahmASLXXWSmRv7p6upau3atEgKY2k3tLddF4VNGq51wTBYFYXLw9iHdi3drtffSRaqnIe1f4l59OX38jCicoarXmf6RQ4IQNWWNAWd5jq/gN8UhU5NqC9M2C/MEDtTTwiwNbq8ojdrBVTV4+5Dux+czobfTZT/cZMg0TbqUI5yhqteZ/pH3TlFD9L/HOw7XXytQToSGoNrCVM0CRBSkNIBJ/N38u70a9mR1ypxJBaLPzXv/sualg7kqn20AAAVOPMKMYW8BuCPw0psWZmkAABAhkNIAACBCIKUBAECEQEoDAIAIgZQGAAARAikNAAAiBFIaAABECKQ0AACIEEhpAAAQIZDSAAAgQuALsWDGyN5CSwBwe+FAPTWkNJgx7C0AdwReetPCiUcAAIgQSGkAABAhkNIAACBCIKUBAECEQEoDAIAIgZQGAAARAikNAAAiBFIaAABECKQ0AACIEPj2EJgx7C0Ad0Q4Lz1RFD//61+VA/s8ctddd/3Nl76k0Wjo8o2a2SzN3+WwH2poecvrv04jAHOF6Pd29gp0YVbdUMviVS9/aVaHM9DLv+cX6QIlXOK9VyfE4IuL5LO/iuK8y2cEGTMZOUGXb1T4KU30HMgsOvaXpQ/GL3inNjO3wYvXEcwpA7zV7OylC+HyNrL292g5pBtqWThnZU/N9EFTuuxkX+EnJMneU6z13C3J4zAfkfkZLc1PNz/+sFNaj73y/cK6l7en601ZPziy5+9qjp/BCwlmThSIiX8OqQaJIdVoeK5LjYoTTidMCoqDvBD6lINcm5aDSfEhWh5DRjvFcEPcS5oaG496HbUVCUGqGuYmC2c8MN/Mx/lZsJsff7gpzdvZZshNj6N7vMZU8+GeDVp6H8B4ngMxnMNPF646OIuyIHobOeMmjrNwaamcvUc5nkpBfWoeZ8kzrg8EPbaY2pbWfGMOV9sx2s4MyG1+M410ZH5EX37Kp0R9p2vYjWYpuJGtkZr1u3axu19jjv+IZXe5JnbT5yxfn5hWxHFP5dvO/YUGiT5XjVkvxTP05FG0acZHmtJncFxRmt5c4+qjUWrIa7foE8m9FrN+fblTuVfaLA0tP2ZJU/YLZFm9BbHLxiYa88iYs8udHwzTqCppYInGp5UWbB6ScUW+NpFzXKX3Mz0Nabl2edqo1tfE8UAk+PMbZaVv/JkuSP586nsrv/G9U8Gh2UCaLTt1jS6E692Gbxx6h5ZnT5gpzd/nZZZ86ipfrzeTQ883jYHDBEC4Lr9ec9pwuL21tbm1w2bqe7eXpC+x07rjnceP//vJ1uaTnS2Pu4utPJ05tPCaPR2/bt2TplOWZ8DvdvUm153tIB2d/M0ejaVJalPkmwrF4l+TjlpPHi9ecq7bx+hM/9z6T1uZbT9qbf1n0/huvA3P1sfa/tDxamvrrw8mXTrupHFfywvWhc+/JcXbOyoWWqtapReCr7Wq9t7St8iqvdrR8bym9oWW4JeH/13XpQfr/iCt+MmOGg13dHQVT73pTz9Kmip+QGrBurCCtvCDhValhQFXTenFnF93niRjfv25v5y2KY9TI/aedzH5Jzt/LbXQtJmvPeljNIZNO/reOEeTNfmrdEmmKV4erUpfRNB4IEJ9dfP+C3/cv/mrdDEChTtLE0VvzSu9294kr66Tnb/fo6t7rqGH3gUQlsVL4//odvf4pfNaq3KqcxM0jOjusKVvNi36VDpfJiw0PJ5i89D9KvnRh+KUUjDf6YaGQ/TmukyDE+kMpS8WJ90rn1sbEETG5x9gGM3CJau63ed90sk2nan4ByaV1gMud7uWFGatVS6+0hq2FhjkEnOZd0RtMd3PyMMV41M2DXZ0+Rkff1Is2GpQzlpovlXx1i9zghvX6Uv3PJNE2hIF4dqgyPT5R0/ZpxpoF6QFZsuGeNruCsOmIVfXVTLZ5O1ZhVmxcpWouOzcYrmkShP/5J7qzcppFL8wxPD9UiZLSNnSd+J3csby8q/FZqeQCup9yQLjgYgkT9FWrgzMjd45VFZ/qOwbK8tOvdFA4vXvShGlLAXprOudemlxLPLOoZX1b5wqlYPSFJBMtlamlP/mdLkx0PhoR3SRYa6dKj10igalOaJcIcfK1OXK1WY+wwst/MtDmJx/2J6kvGq1hm0F97R1euUFgPBoTRVNhp66IuNyfeZOm3y+S/D3Mc466VSkfCuxXzZoo5Ta6hbdl5DwIL3Fhjzz7eMPlBjXG1mOqznqHn2xJBT/ouyeU+WZ6xKNhVUt7035TvCAn49iFtAFki8W0K5I/J2mGjpajnvJdc8yco/ff0a7YIpc0MfbSoz6VDbfUtN0XvW1S1robtoV2A61rnviyHYQBnxM0NbQfGUhLakRe1qq8vT6jHyuwvrm+4M0uiq94L+cPMn9PXxbQrZpGQmp9wVfAPIUraWMLklOW5nC/9jHlP8uumXfhgsf/plESPk/LpBqK8t/Kp2ffOdQLtNy4Y9BEcL6O+afSKSjlvndH/78YPEfL5zZt3HDvg652jNraEekTOIXG2m6qqv4cLscYU7/4droSJ5rlqtZNy+V68yGMFOabkWC7i/D9HyJYuG9IY8oAGPEzwLZQ/tAzp76k50fdvwibbC2qMHLaHWxTFaVdCoycNs+5Vkv7QqDQU9v8YtpcALh9GH24+yT8onHfZVbkmmYYWJNpS+3drz99snnV7g21bqmSGqLdQbhs8/oAslk1+h7WySeVLYvaLTyGUudLkX4bNyLI5jgOsT2Z57slE487qveOjacIKSF5LKXg5ptribtahfHMUNjrzrh435aUuG1f9+xoqpTOvFYv8diVGZ2RJwhk3Ge83nPtCWnKfNI9b4gUq2MmeosY5meZCCmbPvmGGVZLksPePChst/8rw+Zd/5QV7buQfmOB5/cx5CIhNZZutkW4hzmn98gkz8y/SKzNxphNtZuldr5aszXT3/4/yqhWyLcWVqC0dL/Ly0e5SjQ56jdp8nST3XmBr7I4panuzt433WGue53HT9+UQ6KZ2r//+3dD1QUV54v8MqJO51MdluPZ9D1gBxzRudMFCegzMbpZojdhACOodFkuoQTEDKU4Asjb9bA2QzwdiPGia0ZbMhGkDkLuCN/sjG0u0ZmQ2jeuJYnerrNH9rMPHBGbeaNTzphh9qQUBvm8G5VXZoGqqFb8A+V7+f00Vu3b91/XV0/7u0W2cNKHNFFLFcWHLp40x7HCYdUkhD46rzyDv/XGeZGWTUJF/kuOcFcaeGKW/rkhvTLli+R8xQ9VwM/+ZKtMmbc39R6XrncBaejlu5IkHyxwXGRBkPvyRK23i1KYUPXdIKGSOG8LTV70mdpkkW0O+6ztDuTkRrEhpP07UXeXyVZdaRe3WPmPW82vqWE09G+t443yqng7pf/HPXy3S45JYlO3K47VW47YU5LVH4GVW8LYKqUSH+cC8/N0/tK1rYoq7QUmnfHhLzxuK6g5sdD9i1RhgRDVOZby237M1fRZwCmiEguLhZthlVRUZttojlPWZjoEncUDNelJrGs1WT4Se+On+fGkExDcZOB37nZxGZZDI9XD2XtSpM2x+ZEn7yr/vPyTVJDlqKLzHold/X24ljnzs0WqaFtLfqGXWb5Dr/x6folVYaoFLJkDBSdeaBUPPK4IZ21JHGedcVp/nx7KVOTSvLZpLgdnesqsqQPyaLZ1yoeakxNsJChpR4RSw8EfpamN++uFys2mawsm17Ej3dnClJDKWNXaojLfHtdWa5Ur85Y/EujMzOOnGtKObY8Yw8trSIm92fGjh8aLFmsZXuNd2XAWnCFefsKZ89WY/z41qh6W6BF3/iBvVBZY4Xpk7cb7N8i67uoqBT7ex/KWR+eLGGCBblpay8lHN587x3/Km26v45M7pX2OufZmMztdiuJWY0MjdAUfFWFfrWo+HJkSOUSUs2cE1Lj0Gc0HSC8hoKW/kztCfWhKaTujHxJD4IKUkOobzrp9OlFh878bUqthx5MmKm3cI+a9a0nDA0FPs6+Ehn5yq/HD39ti5xgOys9S/78fXOu8mdu8++k8ornTvx+6lmkFK2TpMbrHH+cHS8lNfe75ufk9HMnml/Jbe4dEnpP5I5XGHD6eLFIucx4VXQktwq/4xHChqtloRBveFwXzthOrqyZ/CVMWKBmfev9l0B3lG/NB0fXvmf4+NYWdvPlr/Rz+pZGGN94BIAFRfS6ec9/rj/8j4hnXxX33XcfTS1Mc+8/QhqAVunWbC0oyEtbg+8mf2X8xde+RlO3JHb3XV6izbH/BEIaAIBG6HS6r+l0C3GtRvos/dcyc/7PZfBZGoQNVwvAXYG33qywSgMAAI1ASAMAAI1ASAMAAI1ASAMAAI1ASAMAAI1ASAMAAI1ASAMAAI1ASAMAAI3AP7WGsJGrhaYA4M7CjXpmCGkQNlwtAHcF3nqzwsYjAABoBEIaAABoBEIaAABoBEIaAABoBEIaAABoBEIaAABoBEIaAABoBEIaAABoBEIaAABoBEIaAABoBEIaaMiwp3Evy2YVtVxhfN2V5cc9In1iXoi+j/i+QXoQKtHnOd8n0IP5oFaheMPDX5nPRgAWKIQ00A5PQ7bz0Yr62lczV9OcEHka2MaPaDo4gX+d7bhGD0I1yNutHX30YD6oVShcsLOn57MRgAUKIQ3uLFEgpi6eVDOJYdXcoMRRX3xMjF6vI+kIU8X+nBgpRZE2JuqSGhymaUIc4oVRmlZBuqHWjymVUMHGohiVnhantxU40iA1yGfS9CyCdFhF8KGpdBLgnoeQBvPPfSSKc/jowQ0HV6gciJ4GzrSF4wq51CSu8bJyJ5UyDUnZXGG2KcGf6a6OsrW05ZgyOVv3eD2z8DlfYve9ybT+A8tmNXrIsYOLOuKWnnBw3NGWSmsqly/lM/3OSqvJWshxmSb2Jacv8ETpcApvx15DXDrH5VtzXuP/RDOVSgyp+RyXbiBneWmu6lj85Ge/m0qGb91sKDmtnDRlpEFq6O8oSYiTmvthTvWFiV6oGPY0FsodLrQaEko6+kmWtyU7rtr/3wEJzvKocqcUib1k4AZpaKkGa6VTKqm8WHUtL7OkrcaP5RyAhWVM5na7lQTArGa9WlxVkfntA/Tgj+35BfLB1WZrZkOvkulp3neiZ2RsbIQ/+L097de/lDO97c8bD54juWMue2Ts8+3X5dwwkHbt410baM+PrHLRxFN212dK9si5/ZFlTqkN8kzX6we7vFIq8MRAPcfS06tcSukh/mBKpFLsevOz6fYLQ3L2iKsqPbtV6ioZS2xBs38s+bHyWMjwI+1yP87ZX6yl3fisqyxy3/SRBpmNntqn0u1u2otzh6ReSBUGmBgsby97nXZ4xFkWuV+qYKjjhVj5WWLonbLYn0mZ11uzydDoGNz29GebpU5IvfW3Bfcc3KhnhVUa3ClLl6/5jct12SftaK3LrMiK0TGiq7s6bat5yefSVpuw2PiDxGr3ZaV0/BOPRSupQN7Ourqj9OEM/WMts3HjQ0pKt3hZTM8F3ivttkWYd5eaVyr5qrw93cvynt6o7F7qDTt2Jsqpa7xj0Tbztxm50+KaxC1D3Zd88li2Z22PXiSXWZlR/36pMWDfk4kw7jlQIHVjWBAGSfNeH/2miX+kQWbjWo9zWV7GBtoL4zM7jXJKVYRhz/7dUodFQbg5JDL9PoGc8zfmJ5q6eGnJJ/C/ejvvSdIvL3+K2Za8ho5htXHLsPPSDaWOJCNtC2DhQUiDO0VvLm0yXq7JN60yWPZWyztdgq+f6aiRtiLlR1HjNaNeCQlBLHk4JuZR+lipp5lhick7VvxAR8m2TXFJOeVtnhm/JujznWWYif48+KDS4qCP/6CpkvaZ4w47H1hBnpDGsvgvZwgGXv5IkSnBxHJc5XHXTZoZKMhskOYWMQ/SMiQo016o6+eri0yGJDansLLp4ngjS80Zz7TwbpEZ5J2eQrP0X0iSofU0veRvy+Z8IHrmmQdYEBDS4DYTv/CHDf13MvfXnjr/h+5fpA7Z8us8jD5iJZNR3tbWPPHI/Q4trEq/2mg00MeapTQzPIuizf/zUFvX++//S+nq7lRb5wxBLSIiUfhi4hOxmzevyn8vjTBuLD4U0Oe2vzdHyGMZ+mzK52cThM5j7KfbT53rJuUPlW2Lp9mBgswGaU744gtahkS4m8rHXmoE51F2wHLqfBc591DFM/5GdPGmTMdZl/eis+cZY4yUQ4YWX/xqYFsVZAwACx1CGsy/6FVprm7eO8owoz5na2uvnCmetbGHnXIA0UUsXyznkVvtHscJh1SSEPjqvPIOuv11m/S1FEr/ak2ydPlyuhsp6bk6/iWPCdFGi67pTV4JekJ3e62yKbrKmCE2OC7SWOg9WcLWkxWQNJa3mlv6lO9A9rdwcTZ5r28SZREnXOS75MRkQWaDNHd/U+t52guno1b6kssMFtFG3GcnGtEZkna01ZWfuLkzWY5o0tDEhpNuOoZ+R0lWHRkDwEKHkAbzLyK5uFi0GVZFRW22ieY8ZbGgS9xRMFyXmsSyVpPhJ707fp5Lbq46Q3GTgd+52cRmWQyPVw9l7UpbIZe+XdZs/3G8M9dgyWItCZaWpcd3JUvbeBufrl9SZYhKIQvHSaLZ/aXD1Y8nWNh0E3d5ffFWmp1pL2VqUg3pLJsUt6NzXUWW9PEVGcsbpsu7UuSxZDqNvywO/CxNn7yr/vPyTdLwLUUXmfU0e5IgsxGdeaBUPPI4ac6SxHnWFacppVXozbvrxYpNJivLphfxkxrZaN414GTSjKvocTT7WiljTyVDs5riMt9eV5ZLPzMEWMjuGxsbI39dunRpwwZpix1gVnO6WkZF4XNG+adjAURBmJ55G0ntfV2vC/HTo2C9GxaERdPzZxoLeU68X68PWB2qUa9hpnonkRrRTRud52hq08NvHEqd/Emc+ssB9yjcqGeFVRrcWYt0ajdQ1czbSGov9G9DBOvdQ6r5M42FPDdbPCPUa5ip3kmkRiaNbrCP726sPWHM+P60b5aovxwACxVCGoDG+X7Le36ry2yvMM4eTQEWNoQ0AI2LMOQW7M404guN8BWAkAYAABqBkAYAABqBkAYAABqBkAYAABqBkAYAABqBkAYAABqBkAYAABqBkAYAABqBkAYAABqBkAYAABox8Zv4lWMAAIAFCv+5DIQNVwvAXYG33qyw8QgAABqBkAYAABqBkAYAABqBkAYAABqBkAYAABqBkAYAABqBkAYAABqBkAYAABqBkAYAABqBkAYAABqBkAYAABqBkAZwB4k+z/k+gR7cWfPZtNB33uMT6QHAvQMhDWCCr7OystNHD26HQd5u7eijB3dW6E37nJUvOWechb4Oq50fpAcA9w6ENLizRIGY+vO9aiYxrJqrCHIOOUXtHKn0ME0HkvIDiw97vWrF5kBuYZQeTDU647OBggx30hQFKTN1jNNMPW9U8N4Ibzkn1TBt3oJ1GeD2QUiD+ec+EsU5xn/Kv+HgCpUD0dPAmbZwXCGXmsQ1XlZudlKmISmbK8w2Jfgz3dVRtpa2HFMmZ+tWWS14OyvZOFN2IcdtMbCvucfvmt6OvYa4dI7Lt+a85mgsjKpW/hPAfmel1ZCaz3HpBvYlp1fO8zk47rijOo/NKcxO/aah5LSU7Wlgi2pcrpoiNqvRIxcLCRlgVLWbHkhjV9olCdvJjhJrDpdv2fRdtvrSlJu7PPDvppLZsG6mHfC25cQd8dckOH8aVd5NzgplilTLkLF3lCTESWP/YU71hT/RzEDDnsZCk1QgP9VU2Ogh533UyBbbXRfsRVls40eMeN4WR18+iac+lT0+eaWnNr0q1QLcGWMyt9utJABmNevV4qqKzG8foAd/bM8vkA+uNlszG3qVTE/zvhM9I2NjI/zB7+1pv/6lnOltf9548BzJHXPZI2Ofb78u504z0tv+4r4zXuWgtyHT2nxVSvUcS0+vcklnj40N8QdTIiPtUjevNz+bbr8wJGePuKrSs1ulagfa8yOfsrs+k7P7GrJj7T1ykuRP9DxEZICRdhc9kMYutyslYsnQ5Mwh577YPWekev2FB87ZX6ylHfisqyxynzTwT8+8EDte1VBXWaw0G6FMUZAyPbVPpdvddErOHZKmxN9PxfUTVmsTfU16Wvc1fygX9r9kkp7aJ/Pb/+hPZ8uzTVpXMtWnV71amDPcqGeFVRrcKUuXr/mNy3XZJ+2zrcusyIrRMaKruzptq3nJ59IWlbDY+IPEavdlpXT8E49FKylvZ13dUfpwXmMY3ZqMAxVpK8nKRBB8gsjwPulDHQ//5rK8pzfq5FP0hh07E+XUNd6xaJv524zcgLgmcctQ9yW65jAbNz4kJ1avj/f1XLkhp4OY2ofQxJuMyhj0314ff7KPrmAUEcY9BwqkDgwLwiAZhVcaxVKj2dzQdV5a1AjnO97emWTUhTJFQcpc63Euy8vYQKfE+MxOo5wKtCRiTa/bpXzTI4atyPyOUjhQjDGj/62zct8v8+0Pb39ilZytCDK9IVQLcFsgpMGdojeXNhkv1+SbVhkse6ud/SRL8PUzHTXSVqT8KGq8ZtQvUkpPWPJwTMyj9LFSTzJET1t5ToLBksftrTrT86lSShTJTXzi3AcflEoyzKCP/6CpktbPcYedD6xQngjPtD7MnZc/UmRKMLEcV3ncdZNm6s2W7S1nXSIj8J09hckbQ5uiIGXI2BcxD9Iy5EcBOiWB9Mml/2y4bP+RKSrBUnLE6VX7VC8mbad4micxzXO2fX2GOYJmy4JMbyjVAtwWymIN61kIXXgbj1ebrRO7WIqRgXf2pTxZ2zM2cm5/5MELNDeAf19Ljac2JbOhV9lkGxtoLxjfYBzfgZT11D4p55PWf6SygyltPFZNbBb6m5vzxqM0Iv/G46TdV6XMeGLonbLI8i5lw27SeEfOHTQePOc984I0P/Lx7FMUpIy009s8MXYyb9M2HieMDHTtT0k5Jrc5aeORuN78bHbzVTKlZeM9Hm89yPROCKwW5gw36llhlQbzL3pVmqubl342H/U5W1t75UzxrI097JS/SKeLWL5YztPFm/Y4TjjoT/ECX51X3jHjBuAEZaXSz797QU4w0U9kRdRUtXh8ojjs8zS3nlGyVxkzxAbHRfr9Pe/JErbe/3USda4rkzYIZ7di5fqILl5uQvg/b7W8qeSGRNmPEy7yXXJCojMmPdNS99OWm8+lxcjHIUxRkDJk7Pc3tZ5Xxi44HbXTvvMi8odZWzd9TZYpr4niQm/A0ir6iad1jgpbkynNOGWhpz69wasFuM0Q0mD+RSQXF4s2w6qoqM020ZwXL2fqEncUDNelJrGs1WT4Se+On+eSW7bOUNxk4HduNrFZFsPj1UNZu9JWyKVnsC73ZUOHNcFCTrEc8UZvpNkRW19tMl2xF+fkcDZ+9Y68h5Xs6Ex7KVOTakhn2aS4HZ3rKrLo522qIpIL8y7mR0WVK7E3NBszbPF8wdqoqDiu81vbd9LcmemTd9V/Xr5Jmg1L0UVmPc2WbEwuHOhm0sY/SgxlioKUic48UCoeeZyM3ZLEedYVpymlJ+iMbIF4NNVkJZNj+PFvdxzOksPoirTCH7nzV0WVd9JZiEjcHt3dk5EYP23qVKc3SLUAt999ZKVG/rp06dKGDRuULICZzelqGRWFzxm9fsq9URSE6ZkzGhaEP+umnkIWFvRzJq8jv+SL8rZM/3cZSPlF4bVwB5Bhi/fr9cq3VPwu16X+U/Qbr6ZNXhGFMkXqZWY/c9bJGewoyfTu/PeCoKFJtYZ7cs4XNNyoZ4VVGtxZi6bFIYlq5owe0k85xducE7e30d0vCILPc/JY7YB5feB380j5e+/eSoY9OZ4JfeedjceajBbztK9yhDJF6mVmP3OmyRF9H/GOY7U3dyoboUGo1nBPzjloG0IaaER0Vv0baWL7yxxX+NPWAWPNL4MvKe5Zvh7+wz4de6oi8Z4JBaLXxXv+FHv4tSy6EQpwL8PGI4QNVwvAXYG33qywSgMAAI1ASAMAAI1ASAMAAI1ASAMAAI1ASAMAAI1ASAMAAI1ASAMAAI1ASAMAAI1ASAMAAI3Abw+BsJGrhaYA4M7CjXpmCGkQNlwtAHcF3nqzwsYjAABoBEIaAABoBEIaAABoBEIaAABoBEIaAABoBEIaAABoBEIaAABoBEIaAABoBEIaAABoBH57CIQNVwvAXRHKW08UxS//+7+VG/sCct999/3F176m0+no8a3CKg0AQCNIPPtvUVxw8YwgfSY9J+jxrQoxpAl953l+0qNPoE8BfLWJPs9tejvcUs3iDQ9/ZV67M9jHf+SbcqcRrvCeG3O9+8C8I+szmlqY5t7/EEPan/o/9Hj8j+7G8uc7vPQpAO3wdVZWdvroQYgGebu1o48ehMrTwDZ+RNNB3VLNwgU7ezrck2Z0rYN9nZ8SJPtOs/YL+LH2nrMQ12eB5t7/EENatHl3QcH4w7hsYGVJRgx9CiAcokBM/fFeNZMYVs1VBDmHnKJ2jlR6mKYDSfmBxYe9XrViYRiVqxylR9S0THGIF6aUCTC1V+PURxFkyFTwCZnoj3oZtYEEIRWdoQ+BQukPzJNP3i7e8/Yn9EDyyemfrH3kJ6cDs+YDqbb49E16EKoP6x45+gFNz5/wP0sbdLY2xRdYoukhwDTuI1GcY3ytc8PBFSoHoqeBM23huEIuNYlrvKzc16RMQ1I2V5htSvBnuqujbC1tOaZMztatsmbydlaycabsQo7bYmBfc4/fIL0dew1x6RyXb815zdFYGFWt/Ldu/c5KqyE1n+PSDexLTmV3wefguOOO6jw2pzA79ZuGktNSNlk5FdW4XDVFbFajRy4WJnks300lA7RupnUSUm9TrFJmClspDcfnfInd9ybT+g8s6c/U4fV3lCTESb39YU71hT/RTEJtFKRuUpVBGnKqwVrp7Ke51LCnsVCekEKrIaGkQ3lWejnqWl5mSVWNH5Nj9RrES9XKDFu3l3RcHaG5qqSOxZmeVWqodpOIK/K2OM5xgz7PXK5LzWqUl41qbU3tD9xW39ha9fFvqrZ+gx5qEVnoEW63W0nMqudYevaJ6/QAvpJmvVpcVZH57QP04I/t+QXywdVma2ZDr5Lpad53omdkbGyEP/i9Pe3Xv5Qzve3PGw+eI7ljLntk7PPtQS6zkd72F/ed8SoHvQ2Z1uarUopcmelVLunssbEh/mBKZKRd6ub15mfT7ReG5OwRV1V6dqtU7UB7fuRTdtdncnZfQ3asvUdOkvyJnoeIDDDS7iKJgXP2F2tpnZ91lUXuk8Yycm5fZFmXkjnQVfuzLmVUZIrk7k3RU/tUut1NB3HukDQIqeYgo7jemp1y6BzNvXAw5dlmkisNrUruDm8ve51OyIizLHK/PLVSb/1NSDWQSaM1uO3pcg1jn3aVGZ9vV2b4y+vNBZGRyisYYPwlHul9s2zfvyljGuttslrlm0PP6yn+aew5luLvrUpbk/sDM5v1rScMDQU+ft+cm9v8u/HD3zU/Fyl55ddKztlXcm2v5EZG5jY320i27ayUo6SlzF7lrF8rx/6cs69E2ppPkNPkrN8JZ8efV0iVjzdEKG31nsh95QTNfO7E7wMLSPxtSQ86klsV5ioNSzS4ZUuXr/mNy3XZJ+0vrcusyIrRMaKruzptq3nJ59K+lbDY+IPEavdlpXT8E4/Ry8zbWVd3lD6c1xhGtybjQEXaSrIaEASfIDK8b5CU8vBvLst7eqPyFWC9YcfORDl1jXcs2mb+NiM3IK5J3DLUfYkujMzGjQ/JidXr4309V/yrCjVT+6AqwrjnQIFU57AgDJKOeaWO6RYvW9fjuuiVNtsizAV/Z57pzXOtx7ksL2MDHYTxmZ1GORVkFF7+lLjzGaNeLqL7m9Jf/XNmYOURhj37d0sTQubp5pDI9PvGP/tKMtImSA3MtuQ1tN7Vxi3Dzks3yGKTb8zIyyAzTCyK3p5VIKdU6dY8vb9iK2lWfjGGGX5Amt2YxG39J9+Vl5LkdVm5PZEUUG9L5u8P3FbyEq2lmB5JOu1M3n8cYkrejWw5lPzxHz4hOST9Hx+TYmtLXpH2Jz84msW0fPybgBzC/i7zv0hOt415971PHi34zcdnD6UkH+qWi+2OpQ2RNMnvbaAbkjWlf8iVc5jO926O9+THzXIx+9blcpn5EF5I87TZvP9jp1G5EQCERW8ubTJersk3rTJY9lbL+06Cr5/pqJG2IuVHUeM1o36RUnrCkodjYh6lj5XS/Vv0tJXnJBgsedzeqjM9nyqlRJHEwolzH3xQudMP+vgPmipp/Rx32PnACuWJ8Ezrgyovf6TIlGBiOa7yuGv8k4WYgl8UP3C6xLIpzpRX3vLRjF+pIL1dxDxID0i8oIMIMgqf76z+wRliQT9fXWQyJLE5hZVNF1U/6CA19DS9NF5toc35QDSZf2HQGzCTjO4vF9OUGvFyS3m2wZCew5Xaz/x2iOauS9v55w6exP7LfHvMdvMKkqXeFtxua6Nm2mUsNpAIxBTnbo1SjuW0dMKjjxX/+//9A/PBezXFmx6Vn3j06UMMyZHQMsu3VgfZw/zk7eJH1q59ZG1iyb/THCbF9oxUzzeivtX5h/+nZN0W4YS0wY6mY0Ys0SA84hf+u7j+O5n7a0+d/0P3L1KHbPl1HkYfsZLJKG9ra5545H6HFvbTrzYaDfSxZim5Sza+cGp1xf8+f6q5rf5A4RMPK6UiIhKFLya+dnDz5lX576URxo3FhwLqb/t7c4T8TFim9kGN0HmM/XT7qXPdpJVDZdviaTbDrDTvebWt+/33T72w2rnF5pwhqJHeCl98QQ/IO+4m/WxLfRRThjyF4DzKDlhOne8i5Q9VPDPRnQCkhvjiVwOqba4g9eqXRjPDI/6KhU8HaEqFp/FvHavLz5//17a22v2FJmVlR0QbLUzHBa/nbHt8qrKOVG8L7l0pkf44F56bp/eVrG1RVmkpNO+OCSOkedrsN0uwRIPZRa9Kc3Xz3lGGGfU5W1t75UzxrI09rNzPdRHLlR/8dfGmPY4TDqkkIfDVeeUdM24ATlB+wO/n370gJ5joJ7IiaqpaPD5RHPZ5mlvPKNmrjBlig+MiDSPekyVsvf/rJOpcV8a/e3FLlFWTcJHvkhPMlRauuKVPHqB+2fIlcp6i5+q0hkhv729qPa/0VnA6aum3VNRHQcKGrukEDZHCeVtqdsvUGhfR7rjP0u5MRmoQG066ab39jpKsOlKv7jHznjcb31LC6WjfW8cb5VRw98t/jnr5bpeckkQnbtedKredMKclKktN9bbgtvrGD+yFyhorTJ+83WD/FlnfRUWl2N/7UM768GQJEyzITVt7KeHw5nvv+Fdp0/11ZHKvtNc5v0IOaViiQcgikouLRZthVVTUZptozlMWCLrEHQXDdalJLGs1GX7Su+PnuTEk01DcZOB3bjaxWRbD49VDWbvSpE2qGa3LfdnQYU2wkFMsR7zRG2l2xNZXm0xX7MU5OZyNX70jj67eojPtpUxNqiGdZZPidnSuq8iin7epikguzLuYHxVVPtNaKgh98q76z8s3SQO0FF1k1iu5q7cXxzp3bpZ6a9jWom/YZZbv8Bufrl9SZYhKIUvVQNGZB0rFI4+T3lqSOM+64jR/vtoootnXKh5qTCVTYTWlHhFLDwR+lqY3764XKzaZrCybXsSPd2cKUkMpY1dqiMt8e11ZrlSvzlj8S6MzM46ca0o5tjxjDy2tIib3Z8aOHxosWaxle413ZcBacIV5+wpnz1Zj/Ph0q7cFt9MHR9cGfFH+g9q1ax/JtDM1WY+sXVurBKpp7JlrybPffzf5P+inYs2MnPNIJtMS/KuSsYZi5USpueWbnmRKv0/SrzBP/pgWUOEvtjb8fwAQHH7HI4RtTlfLqCh8zuj1U25moiBMz5zRsCD8WTf1FLIYoh/PeB35JV+Ut2WuUg7l8ovCa+HWSP++6n69fupmRngDDFpadRTqU6qQuqP7ul4386dWQWoQybmh9Fk6nZScUlTo2Gv1PvergnX0mJqptzCLWd96/0WunDkgIfA9w8e3trCbL3+lp58g35owv/EIMEeLpt36JKqZM3pIP+UUb3NO3N5Gd78gCD7PyWO1A+b1/nhGkPJ35C5KRjItnhHhDTBoadVRqE+pQurOLPGMCFJDSPGMkE6fVFT6pVyO2tqBnWlT4hkxU29hru677z6aWpjm3n+ENNCI6Kz6N9LE9pc5rvCnrQPGml8W4Bfc3CWi1817/nP94X+c9I8K4A74i699jaZuSezuu7xEm2P/CWw8QthwtQDcFaG89b7i/7kMQhqEDVcLwF2Bt96ssPEIAAAagZAGAAAagZAGAAAagZAGAAAagZAGAAAagZAGAAAagZAGAAAagZAGAAAagZAGAAAagd8eAmEjVwtNAcCdhRv1zBDSIGy4WgDuCrz1ZoWNRwAA0AiENAAA0AiENAAA0AiENAAA0AiENAAA0AiENAAA0AiENAAA0AiENAAA0AiENAAA0AiENAAA0AiENIA5G/Y07mXZrKKWK4yvu7L8uEekT8wL0fcR3zdID0Il+jzn+wR6MB/UKhRvePgr89kIwBwhpAFM8HVWVnb66EHIPA3Zzkcr6mtfzVxNc0LkaWAbP6Lp4AT+dbbjGj0I1SBvt3b00YP5oFahcMHOnp7PRgDmCCEN7ixRIKYuYlQziWHVXEWQc8gpaudIpYdpOpCUH1h82OtVKzYzcdQXHxOj1+tIOsJUsT8nRkpRpIWJBqZ0QxzihVGaVhHWWKRctdKKUXmg09sKnOEgNchn0vQsgnRYRfChqXQSIGQIaTD/3EeiOMf4WueGgytUDkRPA2fawnGFXGoS13hZuaNJmYakbK4w25Tgz3RXR9la2nJMmZytW2XN5O2sZONM2YUct8XAvuYevzV6O/Ya4tI5Lt+a85qjsTCqWvk/cPqdlVZDaj7HpRvYl5xeOc/n4Ljjjuo8NqcwO/WbhpLTUjZZMxXVuFw1RWxWo0cuFgKf8yV235tM6z+wylmk5qgjbukJ0sTRlkprKpcv1yZ1w2Qlfc40kW74Ak+UDqcIHAv/J5qpPpYgc+gnP/vdVDLt1s10pNNmOEgN/R0lCXFScz/Mqb4w0QsVw57GQrnDhVZDQklHP8nytmTH0ZeAEJzlUeVOKRJ7ycAN0tBSDdZKp1RSuUjqWl5mSVuNH8s5ALdmTOZ2u5UEwKxmvVpcVZH57QP04I/t+QXywdVma2ZDr5Lpad53omdkbGyEP/i9Pe3Xv5Qzve3PGw+eI7ljLntk7PPt1+XcaUZ621/cd8arHPQ2ZFqbr0qpnmPp6VUu6eyxsSH+YEpkpF3q5vXmZ9PtF4bk7BFXVXp2q1TtQHt+5FN212dydl9Ddqy9R06S/Imeh4yMV25LItVc5aIJfxNjI+f2R5Y5ld4NdL1+sEvuf+CJgcIaC5nD2IJm/xzmx8pzSKY90i7345z9xVrajc+6yiL3TZ/hIK9CT+1T6XY37cW5Q1IvpAoDTAyWt5e9Tjs84iyL3C9VMNTxQqz8LDH0Tlnsz6TM663ZZGh0DG57+rPNUiek3vrbgqBwo54VVmlwpyxdvuY3Ltdln7SztC6zIitGx4iu7uq0reYln0tbXsJi4w8Sq92XldLxTzwWraS8nXV1R+nDeY1hdGsyDlSkrSRLC0HwCSLD+6SvTnj4N5flPb1R2fHTG3bsTJRT13jHom3mbzNyA+KaxC1D3Zfokshs3PiQnFi9Pt7Xc+WGnA5iah9C5G+C0S1eFtNzgfdKu20R5t2lZtL/oLw93aGPRZrD7VnboxfJZVZm1L9fagzY92QijHsOFEjdGBaEQdK8V54uwj/DQV6Faz3OZXkZG2gvjM/sNMopVRGGPft3Sx0mr8nNIZHp9wnknL8xP9HUxUtLPoH/1dt5T5J+eflTzLbkNXQMq41bhp2X6MwnGWlbALcOIQ3uFL25tMl4uSbftMpg2Vst7zgJvn6mo0baipQfRY3XjHrl1hxgycMxMY/Sx0o9yRA9beU5CQZLHre36kzPp0opUSR34YlzH3xQKskwgz7+g6ZKWj/HHXY+sEJ5IjzT+hC2mLxjxQ90lGzbFJeUU97mmfFrgj7f2dDHIs3h4r+cIRh4+SNFpgQTy3GVx103aWagIK8CaW4R8yAtQ4Iy7YW6fr66yGRIYnMKK5sujjey1JzxTAvvFplB3ukpNEv/dSUZWk/TS/62bM4Hoqe/4gC3TlmsYT0LoQtv4/Fqs1XZeJwwMvDOvpQna3vk7biDF2huAJedVPBHejCVpzYls6FX2SUbG2gvGN+UG9+BlPXUPinnk9Z/pLKD6d8xk000N88bjxNNBPi0p6Egsuwdae8tyMZjWGOR5nDfr6dt2Y1vPA69UxZZ3qVs9AWMNHCGg7wK0kaxvCuoINMedONxqOtFOiKJ2x45/opLW5o/O3e944WUY8rOLhlafjvdNA7g3yaFGeFGPSus0mD+Ra9Kc3Xz3lGGGfU5W1t75UzxrI097JRXJ7qI5YvlPF28aY/jhEMqSQh8dV55x4wbgBOUH+37+XcvyAkm+omsiJqqFo9PFId9nubWM0r2KmOG2OC4SBdF3pMlbL3/6yTqXFfGv3Uxn/paCqV/tSZZunw53Y2U9Fyd3ly00aJrepNXOi10t9cqm7HqY5Hm8K3mlj7lO5D9LVycTd7rm0RZxAkX+S45MVmQV4E0d39T63naC6ejdpavzCyijbjPTjSiMyTtaKsrP3FzZ3KMnEGGJjacdNMx9DtKsupmeT0AwoGQBvMvIrm4WLQZVkVFbbaJ5rx4OVOXuKNguC41iWWtJsNPenf8PJfc5HSG4iYDv3Ozic2yGB6vHsralbZCLj2DdbkvGzqsCRZyiuWIN3ojzY7Y+mqT6Yq9OCeHs/Grd+Q9rGRHZ9pLmZpUQzrLJsXt6FxXkUU/o1IVkVyYdzE/Kqpcib3zZ832H8c7cw2WLNaSYGlZenxXsrSNt/Hp+iVVhqiUuinRIprdXzpc/TgZY7qJu7y+eCvNVh0LmcM3TJd3pchzmOk0/rI48LM0ffKu+s/LN0nTbim6yKyn2ZMEeRWiMw+UikceJ81ZkjjPuuI0pbQKvXl3vVixyWRl2fQiflIjG827BpxMmnEVPY5mXytl7KlkaFZTXObb68pyZ3o9AMJ0H1mpkb8uXbq0YYO01Q0wqzldLaOi8Dmj/BOuAKIgTM+c0bAg/Fk39RSyzqAfzHgd+SVflLdljt9JpfKLwmvhdpDG+XW9LsRPj4LNivpYZppD8px4v14fsDpUo17DTPVOIjWimzY6z9HUpoffOJQ6+ZM49csAZoEb9aywSoM7a9G0OCRRzZzRQ/opp3ibc+L2Nrr7BUHweU4eqx0wr/fHM4KUvwfun9I4Q/82RLBZUR/LTHNInpstnhHqNcxU7yRSI5NGN9jHdzfWnjBmfH/aN0vULwOAuUJIA42Izqp/I01sf5njCn/aOmCs+WWB8ukN3C2+3/Ke3+oy2yuMs0dTgPmBjUcIG64WgLsCb71ZYZUGAAAagZAGAAAagZAGAAAagZAGAAAagZAGAAAagZAGAAAagZAGAAAagZAGAAAagZAGAAAagZAGAAAaMfELsZRjAACABQq/4xHChqsF4K7AW29W2HgEAACNQEgDAACNQEgDAACNQEgDAACNQEgDAACNQEgDAACNQEgDAACNQEgDAACNQEgDAACNQEgDAACNCCekjfrcjsa6o42OSz6aA3CniZ7j5ZXd067AG87KnzZ6RHoEAF9NIYe0YXf1dkvtjeUxjy6/ecxiOeLG3QOC8jkrX3Le9h987kwrALBwhBrSfN0NtsSa+t1pRkNaQW1NUlMD7iUQ1KjgvSHQtN+wIPh/DhoVBXI0So8myNk0PU7Km8jUxeTsrzBFSMnAVlaYKw7kxujoEaFWk0QlP1hnAGChCTWk6XRLaIpaogu4fQBM+KiRLba7LtiLstjGj8ixuzrK1tKWY8rkbNKGoehp4AzfTeUKOetmQ8lpr3yOVMZxuoTN5rhtm+Ks1e5hOXvY01hoSs3nuPxUUyHdV3QfieIcvqmt3HBwUdVu+STxciOXYLAWctlJcexhXgl6PgfHHXdU57E5hdmp3/S3y3g7K9kUq9SZFFZlPxMAFpYxmdvtVhJBjfQ0FGS/8E9nzvFnGv7Wmv1PPSP0CfjKmf1q+WN7fkH7AD1w2SNjn2+/To8GztlfrHV9Jqc/6yqL3HdOupICywx17Y99/t+ks6+fsFqbeuXMsZ7Wfc0fykWrIvOVugNbIelIu4skRs4djM1v9iq519v3fE+paoA8/5SdttvXkB1r7yGJkXP7Isu6lMyBrtqfdY33EuBeNPtb7ysv5M/SRhnmIdHrdnk+dLn6RvQ0FyAU8U88Fk2TEcY9Bwo2PiTvQw4KIuP1DSpP+Mvo16+Ld1yRVlFLItb0kkvOJ63OYtiKzO/MvjMgXnBWP5O7faVyFJ2xa+eVThddfJmNUrvE6vXxvp4rNxhGt3jZuh7XRa+0FRlhLvg783gvAWBBCjGkiXxNNm841PZaRcHuitf+teaJC9n282qfVADMwssfKTIlmFiOqzzuukkz1emTS//ZcNn+I1NUgqXkiNMbwsddwqCXeeiBidC3dPlKtzd4KzEFvyh+4HSJZVOcKa+85aNpn/8BwIISYkgTfNd86x/2/wgbvc4Q3TeA9z+ETeg8xn66/dS57rbmtkNl2+JpdjD6GHZ//b+e/0PXL9KGbbsaPDQ7OP3SaGZ4ZOKnrcGb/Rujl9MDNSvNe15t637//VMvrHZusTlxUQMsZCGGtIjVj8Z0nXXT97vg7nhTXB+N3UcI7kLvDIsqZRUlXOS75EQQIn+YtXXLF50uYtliOW+Kaa3oHjPvebPxrX7lyOs41hS/1Sh/P1LNlRauuKVPrkG/bPmUb0ABwIIT6mdpMdyxwmF7apTBkm6I2mIfeq6mYAO+8ghBrEgr/JE7f1VUeefUVY8+eVf95+WbkljWaim6yKyn2ap0RrZAPJpqsrJskuHHv91xOCuGPqNQbUVnLP4X86VcAznLkrDj7dhjFcnBf/Zavb041rlzs4XNshi2tegbdpnxcxrAQnbf2NgY+evSpUsbNmxQsmYkCgKj1yOYfaWFfLUERS4j8X69XvmyxqyGBWFR2BeddKV+Xa9bRA9nhKsaFoa5v/U0L+RvPFI6vPNh7shlFGo8Ix66lYtOulJDimcErmoAjQg3pAEAANyjENIAAEAjENIAAEAjENIAAEAjENIAAEAjENIAAEAjENIAAEAjENIAAEAjENIAAEAjENIAAEAjENIAAEAjENIAAEAjJn4Tv3IMAACwQNGQBgAAsNBh4xEAADSBYf4/Cnwfkb8dHYQAAAAASUVORK5CYII=;" vertex="1" parent="1">
          <mxGeometry x="112" y="5914" width="649.1" height="948" as="geometry" />
        </mxCell>
        <mxCell id="luAJzqGbtWHjG9p20asQ-114" value="&lt;h1&gt;Wie werden CSS Properties angewendet?&lt;/h1&gt;" style="text;html=1;spacing=5;spacingTop=-20;whiteSpace=wrap;overflow=hidden;rounded=0;fontFamily=Helvetica;fontSize=11;fontColor=default;labelBackgroundColor=default;" vertex="1" parent="1">
          <mxGeometry x="38" y="3556" width="190" height="111" as="geometry" />
        </mxCell>
        <mxCell id="luAJzqGbtWHjG9p20asQ-115" value="&lt;h1&gt;Scope Proximity&lt;/h1&gt;&lt;div&gt;Dieses Kriterium spielt beim Cascade Algorithmus eine Rolle. Beachte: Deklarationen, die sich in keinem expliziten Scope befinden (außerhalb einer @scope Regel) gehören zum Root-Scope (ein implizter Scope, dessen Scope-Root das html Element ist).&lt;/div&gt;" style="text;html=1;spacing=5;spacingTop=-20;whiteSpace=wrap;overflow=hidden;rounded=0;fontFamily=Helvetica;fontSize=11;fontColor=default;labelBackgroundColor=default;" vertex="1" parent="1">
          <mxGeometry x="19" y="4077" width="653" height="79" as="geometry" />
        </mxCell>
      </root>
    </mxGraphModel>
  </diagram>
</mxfile>
